<?xml version="1.0" encoding="UTF-8" standalone="no"?>
<svg
   width="400"
   height="120"
   viewBox="0 0 400 120"
   version="1.1"
   id="svg4"
   sodipodi:docname="BSV-1.svg"
   xml:space="preserve"
   inkscape:version="1.4 (e7c3feb100, 2024-10-09)"
   xmlns:inkscape="http://www.inkscape.org/namespaces/inkscape"
   xmlns:sodipodi="http://sodipodi.sourceforge.net/DTD/sodipodi-0.dtd"
   xmlns="http://www.w3.org/2000/svg"
   xmlns:svg="http://www.w3.org/2000/svg"><sodipodi:namedview
     id="namedview4"
     pagecolor="#ffffff"
     bordercolor="#000000"
     borderopacity="0.25"
     inkscape:showpageshadow="2"
     inkscape:pageopacity="0.0"
     inkscape:pagecheckerboard="true"
     inkscape:deskcolor="#d1d1d1"
     inkscape:zoom="2.21875"
     inkscape:cx="132.50704"
     inkscape:cy="68.732394"
     inkscape:window-width="1920"
     inkscape:window-height="1056"
     inkscape:window-x="1920"
     inkscape:window-y="0"
     inkscape:window-maximized="1"
     inkscape:current-layer="svg4" /><defs
     id="defs2"><filter
       id="softShadow"
       x="-0.025874999"
       y="-0.086249995"
       width="1.05925"
       height="1.1975"><feGaussianBlur
         in="SourceAlpha"
         stdDeviation="3.9999997"
         id="feGaussianBlur1" /><feOffset
         dx="3"
         dy="3"
         result="offsetblur"
         id="feOffset1" /><feComponentTransfer
         result="shadowAlpha"
         id="feComponentTransfer1"><feFuncA
           type="linear"
           slope="0.35"
           id="feFuncA1" /></feComponentTransfer><feMerge
         id="feMerge2"><feMergeNode
           in="shadowAlpha"
           id="feMergeNode1" /><feMergeNode
           in="SourceGraphic"
           id="feMergeNode2" /></feMerge></filter></defs><path
     style="font-weight:bold;font-size:81.0017px;font-family:Ubuntu;-inkscape-font-specification:'Ubuntu, Bold';letter-spacing:-3.99947px;stroke-width:1.88854"
     d="m 99.431628,93.387277 q -5.167035,0 -10.334068,-0.362599 -5.076381,-0.271949 -10.606011,-1.450395 V 30.657704 q 4.351184,-0.815848 9.518216,-1.178446 5.167032,-0.453249 9.608863,-0.453249 5.982872,0 10.968612,0.906497 5.07638,0.815846 8.70237,2.90079 3.62599,2.084942 5.62029,5.529629 2.08494,3.354038 2.08494,8.33977 0,7.523923 -7.25198,11.875108 5.98288,2.266241 8.15847,6.164177 2.17559,3.897937 2.17559,8.793018 0,9.880815 -7.25197,14.866546 -7.16133,4.985733 -21.393322,4.985733 z M 92.270297,65.195229 v 16.22629 q 1.541046,0.1813 3.354035,0.27195 1.813,0.09065 3.988591,0.09065 6.345477,0 10.243407,-1.812993 3.89794,-1.812994 3.89794,-6.708076 0,-4.351184 -3.26339,-6.164177 -3.26339,-1.903644 -9.33691,-1.903644 z m 0,-10.787312 h 6.889376 q 6.526777,0 9.336927,-1.631693 2.81013,-1.722344 2.81013,-5.438981 0,-3.807287 -2.90079,-5.348331 -2.90079,-1.541045 -8.521074,-1.541045 -1.812988,0 -3.897932,0.09065 -2.084943,0 -3.716637,0.1813 z M 147.53268,92.57143 H 134.02587 V 44.889702 h 13.50681 z m 1.26909,-61.460479 q 0,3.716637 -2.44754,5.89223 -2.35689,2.084942 -5.62028,2.084942 -3.26338,0 -5.71093,-2.084942 -2.35688,-2.175593 -2.35688,-5.89223 0,-3.716636 2.35688,-5.801579 2.44755,-2.175591 5.71093,-2.175591 3.26339,0 5.62028,2.175591 2.44754,2.084943 2.44754,5.801579 z m 6.49273,1.903644 13.50681,-2.175593 v 14.0507 h 16.22629 v 11.240559 h -16.22629 v 16.77019 q 0,4.260535 1.45039,6.798725 1.54105,2.538191 6.07353,2.538191 2.1756,0 4.44183,-0.362599 2.35689,-0.453249 4.26054,-1.178445 l 1.90365,10.515361 q -2.44755,0.997147 -5.43899,1.722345 -2.99143,0.725197 -7.34262,0.725197 -5.52963,0 -9.15562,-1.450395 -3.62598,-1.541044 -5.80157,-4.169885 -2.1756,-2.71949 -3.08209,-6.526777 -0.81586,-3.807285 -0.81586,-8.430419 z m 32.14661,35.71597 q 0,-5.167031 1.6317,-9.699514 1.72234,-4.623134 4.89508,-7.977171 3.17274,-3.444688 7.70522,-5.438981 4.53248,-1.994293 10.33406,-1.994293 3.80729,0 6.98003,0.725198 3.17274,0.634548 6.16418,1.903643 l -2.81015,10.787311 q -1.90364,-0.725198 -4.16987,-1.269095 -2.26625,-0.543898 -5.07639,-0.543898 -5.98288,0 -8.97432,3.716637 -2.90079,3.716635 -2.90079,9.790163 0,6.436127 2.71949,9.971464 2.81014,3.535338 9.69952,3.535338 2.44754,0 5.25768,-0.453249 2.81014,-0.453248 5.16703,-1.450394 l 1.90364,11.05926 q -2.35689,0.997146 -5.89223,1.722344 -3.53534,0.725198 -7.79587,0.725198 -6.52678,0 -11.24056,-1.903644 -4.71378,-1.994293 -7.79587,-5.348331 -2.99144,-3.354037 -4.44184,-7.886522 -1.35974,-4.623132 -1.35974,-9.971464 z m 85.44866,-0.09065 q 0,5.620279 -1.63169,10.334062 -1.63169,4.623133 -4.71379,7.977171 -3.08208,3.263389 -7.43327,5.076382 -4.26053,1.812994 -9.60886,1.812994 -5.25769,0 -9.60887,-1.812994 -4.26053,-1.812993 -7.34261,-5.076382 -3.08209,-3.354038 -4.80445,-7.977171 -1.72234,-4.713783 -1.72234,-10.334062 0,-5.620281 1.72234,-10.243414 1.813,-4.623133 4.89509,-7.886522 3.17274,-3.263388 7.43328,-5.076381 4.35118,-1.812993 9.42756,-1.812993 5.16703,0 9.42757,1.812993 4.35118,1.812993 7.43327,5.076381 3.08209,3.263389 4.80443,7.886522 1.72234,4.623133 1.72234,10.243414 z m -13.77875,0 q 0,-6.254828 -2.53818,-9.790165 -2.44755,-3.625987 -7.07068,-3.625987 -4.62313,0 -7.16132,3.625987 -2.5382,3.535337 -2.5382,9.790165 0,6.254827 2.5382,9.971463 2.53819,3.625987 7.16132,3.625987 4.62313,0 7.07068,-3.625987 2.53818,-3.716636 2.53818,-9.971463 z m 33.23446,23.931513 h -13.5068 V 44.889702 h 13.5068 z m 1.2691,-61.460478 q 0,3.716636 -2.44754,5.892229 -2.35689,2.084942 -5.62028,2.084942 -3.26339,0 -5.71093,-2.084942 -2.3569,-2.175593 -2.3569,-5.892229 0,-3.716637 2.3569,-5.80158 2.44754,-2.175591 5.71093,-2.175591 3.26339,0 5.62028,2.175591 2.44754,2.084943 2.44754,5.80158 z m 6.94598,15.410444 q 3.44469,-0.997146 8.88366,-1.812994 5.43899,-0.906497 11.42187,-0.906497 6.07352,0 10.06211,1.631695 4.07923,1.541044 6.43613,4.441834 2.35689,2.90079 3.35403,6.889375 0.99715,3.988586 0.99715,8.883668 V 92.57143 H 328.20872 V 67.280171 q 0,-6.526776 -1.72236,-9.246266 -1.72234,-2.719491 -6.43612,-2.719491 -1.45039,0 -3.08208,0.1813 -1.6317,0.09065 -2.9008,0.271949 V 92.57143 h -13.5068 z"
     id="text3"
     aria-label="Bitcoin" /><path
     d="m 354.39819,67.851386 q 1.32004,0 2.16008,-0.200008 0.88003,-0.24001 1.40006,-0.600024 0.52001,-0.400017 0.72003,-0.920038 0.20001,-0.520022 0.20001,-1.160048 0,-1.360055 -1.28006,-2.240091 -1.28005,-0.920038 -4.40018,-1.96008 -1.36005,-0.480019 -2.72011,-1.080043 -1.36005,-0.640027 -2.44009,-1.560064 -1.08006,-0.96004 -1.76008,-2.280094 -0.68003,-1.360055 -0.68003,-3.280133 0,-1.920079 0.72004,-3.440141 0.72002,-1.560063 2.04007,-2.640107 1.32006,-1.080044 3.20014,-1.640067 1.88007,-0.600024 4.24017,-0.600024 2.80012,0 4.8402,0.600024 2.04009,0.600025 3.36013,1.320053 l -1.80008,4.920201 q -1.16004,-0.600024 -2.6001,-1.040042 -1.40006,-0.480019 -3.40014,-0.480019 -2.24008,0 -3.24013,0.640026 -0.96004,0.600024 -0.96004,1.880076 0,0.760031 0.36002,1.280053 0.36001,0.52002 1.00004,0.960039 0.68003,0.400016 1.52007,0.76003 0.88003,0.320014 1.92007,0.680028 2.16008,0.800033 3.76015,1.600066 1.60007,0.760031 2.64011,1.800073 1.08004,1.040042 1.60007,2.440099 0.52001,1.400057 0.52001,3.400139 0,3.880158 -2.7201,6.040246 -2.72012,2.120087 -8.20033,2.120087 -1.84009,0 -3.32014,-0.24001 -1.48006,-0.200009 -2.64011,-0.520021 -1.12005,-0.320013 -1.96008,-0.680028 -0.80003,-0.360014 -1.36006,-0.680028 l 1.76008,-4.960202 q 1.24005,0.680027 3.04013,1.240051 1.84007,0.520021 4.48018,0.520021 z m 23.56098,4.760194 q -1.64007,-3.480142 -3.24014,-7.240296 -1.60006,-3.760153 -3.04012,-7.440302 -1.44006,-3.680151 -2.68011,-7.040288 -1.20005,-3.360137 -2.08009,-6.000244 h 6.88028 q 0.80004,2.400097 1.72007,5.200211 0.96004,2.760113 1.92008,5.520226 1.00004,2.760112 1.92009,5.280215 0.92003,2.520102 1.72006,4.360178 0.76004,-1.840076 1.68007,-4.360178 0.96003,-2.520103 1.92007,-5.280215 1.00005,-2.760113 1.92009,-5.520226 0.96004,-2.800114 1.76007,-5.200211 h 6.64027 q -0.92004,2.640107 -2.12008,6.000244 -1.20006,3.360137 -2.64011,7.040288 -1.44006,3.680149 -3.04013,7.440302 -1.60007,3.760154 -3.24013,7.240296 z"
     id="text3-0"
     style="font-weight:bold;font-size:35.7442px;font-family:Ubuntu;-inkscape-font-specification:'Ubuntu, Bold';fill:#eab300;fill-opacity:1;stroke-width:1.11116"
     aria-label="SV" /><text
     xml:space="preserve"
     style="font-style:italic;font-variant:normal;font-weight:normal;font-stretch:normal;font-size:24px;line-height:0;font-family:'Ubuntu Mono';-inkscape-font-specification:'Ubuntu Mono, Italic';font-variant-ligatures:normal;font-variant-caps:normal;font-variant-numeric:normal;font-variant-east-asian:normal;text-align:start;letter-spacing:-2.37px;writing-mode:lr-tb;direction:ltr;text-anchor:start;opacity:1;fill:#dedede;fill-opacity:1;stroke:#a3a3a3;stroke-width:1.5;stroke-dasharray:none;stroke-opacity:1"
     x="-82.028168"
     y="-56.788731"
     id="text7"><tspan
       sodipodi:role="line"
       id="tspan7" /></text><g
     id="g9"
     transform="matrix(0.02622782,0,0,0.02622782,5.408157,28.595027)"><path
       d="m 2499.6,1250 c 0,690.2 -559.6,1249.8 -1250.1,1249.9 C 559.5,2499.9 -0.1,1940.2 0,1249.9 -0.2,559.6 559.4,0 1249.7,0 1940,0 2499.6,559.7 2499.6,1250 Z"
       fill="#eab300"
       id="path1" /><g
       fill="#ffffff"
       id="g3"><path
         d="M 1741.5,943.8 C 1725.4,776.4 1580.9,720.3 1398.3,704.3 V 472 H 1257 v 226.1 c -37.1,0 -75.1,0.7 -112.8,1.5 V 472 h -141.3 l -0.1,232.1 c -30.6,0.6 -60.7,1.2 -90,1.2 v -0.7 l -194.9,-0.1 v 151 c 0,0 104.4,-2 102.6,-0.1 57.3,0 75.9,33.2 81.3,61.9 v 264.6 c 4,0 9.1,0.2 14.9,1 h -14.9 l -0.1,370.7 c -2.5,18 -13.1,46.7 -53.1,46.8 1.8,1.6 -102.7,0 -102.7,0 l -28.1,168.8 h 184 c 34.2,0 67.9,0.6 100.9,0.8 l 0.1,234.9 H 1144 v -232.4 c 38.7,0.8 76.2,1.1 112.9,1.1 l -0.1,231.3 h 141.3 v -234.4 c 237.6,-13.6 404.1,-73.5 424.7,-296.7 16.7,-179.7 -67.8,-260 -202.7,-292.4 82.1,-41.6 133.4,-115.1 121.4,-237.6 z M 1543.7,1446 c 0,175.5 -300.5,155.6 -396.4,155.6 v -311.3 c 95.9,0.2 396.4,-27.3 396.4,155.7 z m -65.8,-439.1 c 0,159.7 -250.8,141 -330.6,141.1 V 865.8 c 79.9,0 330.7,-25.4 330.6,141.1 z"
         id="path2" /><path
         d="m 902,1175.7 h 21 v 15.5 h -21 z"
         id="path3" /></g></g></svg>
