<?xml version="1.0" encoding="UTF-8" standalone="no"?>
<svg
   width="388"
   height="90"
   viewBox="0 0 388 90"
   version="1.1"
   id="svg3"
   sodipodi:docname="BSV-4.svg"
   xml:space="preserve"
   inkscape:version="1.4 (e7c3feb100, 2024-10-09)"
   xmlns:inkscape="http://www.inkscape.org/namespaces/inkscape"
   xmlns:sodipodi="http://sodipodi.sourceforge.net/DTD/sodipodi-0.dtd"
   xmlns:xlink="http://www.w3.org/1999/xlink"
   xmlns="http://www.w3.org/2000/svg"
   xmlns:svg="http://www.w3.org/2000/svg"><sodipodi:namedview
     id="namedview3"
     pagecolor="#ffffff"
     bordercolor="#000000"
     borderopacity="0.25"
     inkscape:showpageshadow="2"
     inkscape:pageopacity="0.0"
     inkscape:pagecheckerboard="true"
     inkscape:deskcolor="#d1d1d1"
     inkscape:zoom="2.1130952"
     inkscape:cx="159.71831"
     inkscape:cy="112.63099"
     inkscape:window-width="1920"
     inkscape:window-height="1029"
     inkscape:window-x="0"
     inkscape:window-y="27"
     inkscape:window-maximized="1"
     inkscape:current-layer="svg3" /><defs
     id="defs2"><filter
       id="glow"
       x="-0.38999999"
       y="-0.2888889"
       width="1.78"
       height="1.5777777"><feGaussianBlur
         stdDeviation="2"
         result="coloredBlur"
         id="feGaussianBlur1" /><feMerge
         id="feMerge2"><feMergeNode
           in="coloredBlur"
           id="feMergeNode1" /><feMergeNode
           in="SourceGraphic"
           id="feMergeNode2" /></feMerge></filter><linearGradient
       x1="15"
       y1="0"
       x2="15"
       y2="30"
       id="c"
       gradientUnits="userSpaceOnUse"><stop
         stop-color="#FFF"
         stop-opacity=".5"
         offset="0%"
         id="stop1" /><stop
         stop-opacity=".5"
         offset="100%"
         id="stop2" /></linearGradient><filter
       x="-0.04"
       y="-0.04"
       width="1.08"
       height="1.0966667"
       filterUnits="objectBoundingBox"
       id="a"><feOffset
         dy=".5"
         in="SourceAlpha"
         result="shadowOffsetOuter1"
         id="feOffset2" /><feGaussianBlur
         stdDeviation=".5"
         in="shadowOffsetOuter1"
         result="shadowBlurOuter1"
         id="feGaussianBlur2" /><feComposite
         in="shadowBlurOuter1"
         in2="SourceAlpha"
         operator="out"
         result="shadowBlurOuter1"
         id="feComposite2" /><feColorMatrix
         values="0 0 0 0 0 0 0 0 0 0 0 0 0 0 0 0 0 0 0.199473505 0"
         in="shadowBlurOuter1"
         id="feColorMatrix2" /></filter><circle
       id="b"
       cx="15"
       cy="15"
       r="15" /></defs><g
     id="text2"
     style="font-weight:900;font-size:77.8836px;font-family:Lato;-inkscape-font-specification:'Lato, Heavy';letter-spacing:-6.01261px;stroke-width:1.62257"
     transform="scale(1.0514037,0.95110945)"
     aria-label="BITCOIN"><path
       d="m 26.217021,48.935736 q 2.609101,0 4.244656,-0.662011 1.674498,-0.662011 2.609101,-1.713439 0.934603,-1.051429 1.285079,-2.37545 0.350476,-1.324021 0.350476,-2.686984 0,-1.557672 -0.428359,-2.80381 -0.389418,-1.246137 -1.401905,-2.102857 -0.973545,-0.856719 -2.609101,-1.324021 -1.635555,-0.467302 -4.127831,-0.467302 H 16.948873 V 48.935736 Z M 16.948873,11.979968 v 14.019048 h 6.853757 q 2.18074,0 3.933121,-0.311535 1.752381,-0.311534 2.959577,-1.09037 1.246138,-0.778836 1.869206,-2.141799 0.662011,-1.362963 0.662011,-3.426878 0,-2.024974 -0.506243,-3.348995 -0.506244,-1.362963 -1.557672,-2.180741 -1.051429,-0.817777 -2.686985,-1.168254 -1.596613,-0.350476 -3.816296,-0.350476 z m 7.710476,-9.8522751 q 5.880212,0 10.008043,1.0903704 4.12783,1.0903704 6.736931,3.0764021 2.6091,1.9860318 3.777354,4.8287836 1.207196,2.842751 1.207196,6.347513 0,1.908148 -0.545185,3.699471 -0.545185,1.752381 -1.713439,3.310053 -1.168254,1.51873 -2.998519,2.803809 -1.830264,1.28508 -4.400423,2.219683 5.607619,1.362963 8.294603,4.400423 2.686984,3.03746 2.686984,7.866243 0,3.621588 -1.401905,6.736932 -1.401904,3.115344 -4.12783,5.451852 -2.686984,2.297566 -6.659048,3.621587 -3.972063,1.285079 -9.073439,1.285079 H 3.7865448 V 2.1276929 Z M 63.157242,58.865894 H 49.91703 V 2.1276929 H 63.157242 Z M 108.89835,12.564095 H 92.932208 V 58.865894 H 79.76988 V 12.564095 H 63.803742 V 2.1276929 h 45.094608 z m 37.56319,31.620741 q 0.4673,0 0.93461,0.194709 0.4673,0.155767 0.89566,0.584127 l 5.2182,5.490794 q -3.42688,4.478307 -8.60614,6.775873 -5.14032,2.258624 -12.18878,2.258624 -6.46434,0 -11.60466,-2.180741 -5.10137,-2.219682 -8.68402,-6.07492 -3.5437,-3.89418 -5.45185,-9.190265 -1.90815,-5.335026 -1.90815,-11.565714 0,-6.347514 2.06392,-11.643598 2.06391,-5.335027 5.80232,-9.1902648 3.73842,-3.8552381 8.95662,-5.9970371 5.2182,-2.141799 11.48783,-2.141799 3.19323,0 5.99703,0.584127 2.84276,0.5451852 5.29609,1.557672 2.45333,0.973545 4.51725,2.3754498 2.06391,1.4019047 3.66053,3.0374603 l -4.43937,5.9580948 q -0.42836,0.545186 -1.01248,1.012487 -0.58413,0.42836 -1.63556,0.42836 -0.70095,0 -1.32402,-0.311534 -0.62307,-0.311535 -1.32402,-0.739895 -0.70095,-0.467301 -1.55767,-0.973545 -0.81778,-0.545185 -1.98604,-0.973545 -1.12931,-0.467301 -2.68698,-0.778835 -1.51873,-0.311535 -3.58265,-0.311535 -3.27111,0 -5.99703,1.207196 -2.68699,1.207196 -4.67302,3.543704 -1.94709,2.297566 -3.03746,5.685502 -1.05143,3.348995 -1.05143,7.671535 0,4.361481 1.16826,7.749418 1.20719,3.387936 3.23217,5.724444 2.06391,2.297566 4.78984,3.504762 2.72592,1.207196 5.84127,1.207196 1.79132,0 3.27111,-0.155767 1.47979,-0.194709 2.76487,-0.584127 1.28507,-0.42836 2.41439,-1.090371 1.12931,-0.700952 2.29756,-1.752381 0.4673,-0.389418 1.01249,-0.623068 0.54519,-0.272593 1.12931,-0.272593 z"
       id="path1" /><path
       style="fill:#ffffff"
       d="m 208.94759,30.477323 q 0,6.152804 -2.1418,11.448889 -2.10285,5.296084 -5.95809,9.229206 -3.85524,3.89418 -9.30709,6.113863 -5.41291,2.219682 -12.03302,2.219682 -6.6201,0 -12.07196,-2.219682 -5.45185,-2.219683 -9.34603,-6.113863 -3.85524,-3.933122 -5.99704,-9.229206 -2.10285,-5.296085 -2.10285,-11.448889 0,-6.152805 2.10285,-11.448889 2.1418,-5.296085 5.99704,-9.1902648 3.89418,-3.8941799 9.34603,-6.1138625 5.45186,-2.2196826 12.07196,-2.2196826 6.62011,0 12.03302,2.2586244 5.45185,2.2196826 9.30709,6.1138625 3.85524,3.89418 5.95809,9.190265 2.1418,5.296084 2.1418,11.409947 z m -13.47386,0 q 0,-4.205715 -1.09037,-7.554709 -1.09037,-3.387937 -3.15429,-5.724445 -2.02497,-2.336508 -4.98455,-3.582645 -2.95957,-1.246138 -6.73693,-1.246138 -3.8163,0 -6.81481,1.246138 -2.95958,1.246137 -5.0235,3.582645 -2.02497,2.336508 -3.11534,5.724445 -1.09037,3.348994 -1.09037,7.554709 0,4.244656 1.09037,7.632592 1.09037,3.348995 3.11534,5.685503 2.06392,2.336508 5.0235,3.582646 2.99851,1.207195 6.81481,1.207195 3.77736,0 6.73693,-1.207195 2.95958,-1.246138 4.98455,-3.582646 2.06392,-2.336508 3.15429,-5.685503 1.09037,-3.387936 1.09037,-7.632592 z"
       id="path2" /><path
       d="M 223.92466,58.865894 H 210.68445 V 2.1276929 h 13.24021 z M 278.42768,2.1276929 V 58.865894 h -6.85376 q -1.51873,0 -2.57016,-0.467301 -1.01249,-0.506244 -2.02497,-1.713439 L 240.22577,22.84473 q 0.15577,1.51873 0.19471,2.959577 0.0779,1.401905 0.0779,2.648042 V 58.865894 H 228.89371 V 2.1276929 h 6.93164 q 0.85672,0 1.44084,0.077884 0.58413,0.077884 1.05143,0.3115344 0.4673,0.194709 0.89566,0.584127 0.42836,0.389418 0.97355,1.0514286 L 267.1735,38.226741 q -0.19471,-1.635556 -0.2726,-3.154286 -0.0779,-1.557672 -0.0779,-2.920635 V 2.1276929 Z"
       id="path3" /></g><!-- Lion emblem in yellow/gold --><!-- Chinese text below --><path
     d="m 244.07529,63.284033 v 14.196218 h -2.30833 v -1.846662 h -8.30998 v 10.041227 h -2.30833 V 75.633589 h -7.96373 v 2.077495 h -2.30833 V 63.284033 h 10.27206 v -4.50124 h 2.30833 v 4.50124 z m -20.89037,10.156644 h 7.96373 v -7.963732 h -7.96373 z m 10.27206,-7.963732 v 7.963732 h 8.30998 v -7.963732 z m 16.15829,-1.500414 h 11.07998 v -5.193738 h 2.30833 v 5.193738 h 11.07997 v 2.192912 h -9.34873 q 4.15499,8.309981 10.61831,12.118723 l -1.26958,2.423744 q -6.80957,-4.501239 -11.07997,-13.15747 v 10.041227 h 6.57873 v 2.192912 h -6.57873 v 5.655404 h -2.30833 v -5.655404 h -6.46332 v -2.192912 h 6.46332 v -9.810394 q -4.03958,8.079148 -10.73373,12.926637 l -1.50041,-2.077495 q 2.76999,-1.846662 5.77082,-5.424571 3.11624,-3.577909 4.73207,-7.040401 h -9.34873 z m 28.62327,-4.039574 h 10.84914 v 2.077495 h -1.84666 v 14.773301 l 1.15417,-0.34625 0.34625,1.962079 -1.50042,0.461666 v 6.578735 h -2.19291 v -5.886237 l -6.23249,1.61583 -0.80791,-2.308328 1.61583,-0.346249 V 62.014452 h -1.385 z m 3.57791,5.770821 h 3.23166 v -3.693326 h -3.23166 z m 0,5.77082 h 3.23166 v -3.693325 h -3.23166 z m 0,6.578735 3.23166,-0.692498 v -3.808742 h -3.23166 z m 10.96456,-2.654577 h 2.19291 v 7.040401 q 0.11542,0.577082 2.30833,0.577082 1.50041,0 1.84666,-0.34625 0.46167,-0.461665 0.57708,-1.846662 l 2.19292,0.923331 q -0.34625,2.077495 -1.15417,2.654578 -0.6925,0.692498 -3.46249,0.692498 -2.88541,0 -3.69333,-0.577082 -0.80791,-0.577082 -0.80791,-1.962079 z m 4.61666,0.230833 2.53916,2.88541 -1.61583,1.500413 -2.42375,-3.231659 z m 5.30915,0.807914 q 1.385,2.539161 2.30833,5.539988 l -2.0775,0.807915 q -0.80791,-3.000827 -2.19291,-5.424571 z m -12.6958,0.230833 2.07749,0.807915 q -0.92333,4.154991 -2.19291,6.924985 l -2.19291,-1.154165 q 1.50041,-3.231659 2.30833,-6.578735 z m 10.04122,-17.65871 2.42375,0.692498 -2.77,4.962906 h 3.00083 v 9.810394 H 290.5881 V 64.66903 h 6.69415 z m -7.27123,13.388303 h 7.7329 v -5.77082 h -7.7329 z m 0.11542,-13.388303 q 1.61583,1.962079 2.53916,4.039574 l -1.96208,1.154164 q -0.92333,-2.192912 -2.53916,-4.270407 z m 38.66449,0.807915 v 16.504546 h -2.30833 V 61.899036 h -7.7329 v 14.427051 h -2.30832 V 59.821541 Z m -7.27123,4.847489 h 2.19291 q 0,6.578735 -0.57708,10.27206 h 1.61583 v 7.271234 q 0,0.923331 1.96208,0.923331 1.96208,0 2.30833,-0.461666 0.46166,-0.461665 0.57708,-2.88541 l 2.19291,0.577082 q -0.23083,3.116243 -1.15417,4.039575 -0.57708,0.692498 -3.92415,0.692498 -2.88541,0 -3.57791,-0.461666 -0.6925,-0.461665 -0.6925,-1.731246 v -5.655404 q -1.96208,5.539988 -8.4254,8.540814 l -1.15416,-1.962079 q 4.50124,-2.192911 6.57873,-5.655403 2.0775,-3.462493 2.0775,-13.50372 z m -16.1583,-2.308328 h 3.80874 l -1.50041,-2.654578 2.19291,-1.038747 1.73125,3.693325 h 3.34707 v 2.192911 l -3.00082,5.886237 3.34707,2.654578 -1.50041,1.962079 -2.30833,-2.423745 V 85.5594 h -2.19291 V 74.133175 q -1.73125,2.077496 -3.34708,3.116243 l -1.38499,-2.077495 q 4.84749,-3.347076 8.07915,-10.61831 h -7.27124 z m 42.12699,17.65871 0.34625,2.077495 q -5.88624,1.384997 -13.04205,2.308329 l -0.46167,-2.308329 5.42457,-0.692498 v -3.000827 h -4.84749 v -2.077495 h 4.84749 v -2.769994 h -4.9629 V 60.16779 h 12.0033 v 13.388303 h -4.84749 v 2.769994 h 4.73208 v 2.077495 h -4.73208 V 81.05816 Z M 339.75549,65.93861 h 2.76999 v -3.693325 h -2.76999 z m 4.9629,-3.693325 v 3.693325 h 2.65458 v -3.693325 z m -4.9629,9.233313 h 2.76999 v -3.693325 h -2.76999 z m 4.9629,-3.693325 v 3.693325 h 2.65458 v -3.693325 z m 6.34791,-7.848316 h 11.07997 v 2.192912 q -1.50041,2.769994 -3.57791,5.193738 l 1.26958,1.269581 -0.6925,0.923331 h 4.27041 v 1.962079 l -1.61583,5.424571 -2.19291,-0.692498 1.385,-4.616657 h -2.88541 v 11.310808 q -0.11542,2.539161 -2.77,2.539161 l -3.34707,-0.346249 -0.46167,-2.423745 3.46249,0.461666 q 0.80792,0 0.80792,-1.384997 V 71.594014 h -5.30916 v -2.077495 h 6.92499 l -4.73208,-4.50124 1.50042,-1.500413 2.76999,2.192912 q 1.50042,-1.731247 2.42375,-3.577909 h -8.30998 z"
     id="text3"
     style="font-weight:500;font-size:29.5466px;font-family:system-ui, sans-serif;fill:#cc0000;stroke-width:1.05524"
     aria-label="中本聪视野" /><text
     xml:space="preserve"
     style="font-style:normal;font-variant:normal;font-weight:900;font-stretch:normal;font-size:74.9914px;line-height:0;font-family:Lato;-inkscape-font-specification:'Lato, Heavy';font-variant-ligatures:normal;font-variant-caps:normal;font-variant-numeric:normal;font-variant-east-asian:normal;text-align:start;letter-spacing:-2.69847px;writing-mode:lr-tb;direction:ltr;text-anchor:start;fill:#000000;stroke:#000000;stroke-width:0.937391"
     x="278.33878"
     y="57.333733"
     id="text4"
     transform="scale(1.0514037,0.95110945)"><tspan
       sodipodi:role="line"
       id="tspan3"
       x="278.33878"
       y="57.333733"
       style="font-style:normal;font-variant:normal;font-weight:500;font-stretch:normal;font-size:74.9914px;font-family:Lato;-inkscape-font-specification:'Lato, Medium';font-variant-ligatures:normal;font-variant-caps:normal;font-variant-numeric:normal;font-variant-east-asian:normal;letter-spacing:-2.69847px;stroke-width:0.937391">SV</tspan></text><path
     style="fill:#cc0000;fill-opacity:1;stroke:#cc0000;stroke-width:0.283944;stroke-opacity:1"
     d="m 307.60563,54.810771 c -4.75683,-1.064627 -12.54084,-5.022121 -12.54084,-6.375929 0,-0.25692 0.6491,-1.410567 1.44245,-2.563661 1.80602,-2.624959 2.89058,-2.693132 6.58336,-0.413815 3.47517,2.144997 6.50383,3.049676 10.20962,3.049676 6.81738,0 10.63217,-3.15577 10.63217,-8.795405 0,-1.914755 -0.23219,-2.432643 -1.78834,-3.988794 -1.5054,-1.505401 -2.68465,-2.061748 -7.45352,-3.516412 -11.03974,-3.367494 -14.14468,-5.187671 -16.13287,-9.457403 -1.31858,-2.831721 -1.50276,-7.130299 -0.43515,-10.156226 2.60894,-7.3945088 12.24076,-11.4618415 22.52435,-9.5115986 2.96802,0.5628738 8.58929,3.0551229 9.72744,4.3127624 0.75257,0.831582 0.71941,1.0066002 -0.59292,3.1292422 -0.76454,1.236617 -1.77383,2.322299 -2.24286,2.412626 -0.46903,0.09033 -2.46425,-0.653706 -4.43382,-1.653407 -3.32785,-1.689132 -3.8685,-1.8176383 -7.64709,-1.8176383 -6.1103,0 -9.26356,1.9995373 -9.83157,6.2343753 -0.5598,4.173628 1.73761,6.016121 11.34121,9.095493 6.8938,2.210482 9.07347,3.223322 11.47564,5.332456 2.76108,2.424263 3.75704,4.796195 3.7434,8.915141 -0.025,7.537799 -4.80033,13.323384 -12.74967,15.446842 -2.21327,0.591214 -9.71529,0.795189 -11.83099,0.321675 z"
     id="path4" /><path
     style="fill:#cc0000;fill-opacity:1;stroke:#cc0000;stroke-width:0.284;stroke-opacity:1;stroke-dasharray:none"
     d="M 354.21897,53.711271 C 353.78762,52.905292 332.34262,5.3620449 331.64612,3.6676056 c -0.18329,-0.4459023 0.7468,-0.5915493 3.77758,-0.5915493 3.14809,0 4.22909,0.1797447 4.9807,0.8281691 0.792,0.6832667 14.09419,30.1632486 16.92296,37.5042256 1.08997,2.828609 1.44367,3.152112 1.81756,1.662399 0.70185,-2.796397 16.53265,-38.4003035 17.41492,-39.1666246 0.74666,-0.6485434 1.82311,-0.8281691 4.96301,-0.8281691 2.36161,0 3.94471,0.1871357 3.8518,0.4553148 -0.0868,0.2504231 -5.26873,11.8524159 -11.5155,25.7822079 l -11.35774,25.326892 -3.88758,0.0093 c -3.41054,0.0082 -3.94982,-0.106971 -4.39486,-0.938542 z"
     id="path5" /><g
     fill="none"
     id="g5"
     transform="matrix(1.8402814,0,0,1.8402814,158.90738,1.3652008)"><g
       transform="translate(1)"
       id="g4"><use
         fill="#000000"
         filter="url(#a)"
         xlink:href="#b"
         id="use2" /><use
         fill="#eab304"
         xlink:href="#b"
         id="use3" /><use
         fill="url(#c)"
         style="mix-blend-mode:soft-light;fill:url(#c)"
         xlink:href="#b"
         id="use4" /><circle
         stroke-opacity="0.097"
         stroke="#000000"
         stroke-linejoin="square"
         cx="15"
         cy="15"
         r="14.5"
         id="circle4" /></g><path
       d="m 22.15,13.57 0.07,-0.14 c 0,-0.07 0,-0.14 0.14,-0.09 a 0.56,0.56 0 0 0 0,-0.19 0.4,0.4 0 0 0 0,-0.28 1.71,1.71 0 0 1 -0.07,-1.09 0.3,0.3 0 0 0 0,-0.14 l 0.07,-0.07 a 0.33,0.33 0 0 1 0.07,0.09 0.3,0.3 0 0 1 0,0.14 v 0.07 c 0,0.07 0.12,-0.07 0.17,-0.12 a 1,1 0 0 1 0.2,-0.12 1.36,1.36 0 0 0 -0.07,-0.54 1.67,1.67 0 0 1 0.07,-1.14 c 0,0.07 0.09,0.12 0.09,0.19 0.017,0.26 0.127,0.505 0.31,0.69 0.203,0.233 0.356,0.505 0.45,0.8 0,0 0,0.09 0.07,0.09 0.288,0.083 0.55,0.237 0.76,0.45 0.242,0.218 0.472,0.448 0.69,0.69 A 0.49,0.49 0 0 1 25.26,13 h 0.07 a 6.23,6.23 0 0 0 0,-0.66 c 0,-0.19 0.09,-0.38 0.28,-0.35 h 0.09 a 0.39,0.39 0 0 1 0.3,-0.36 0.4,0.4 0 0 1 0,0.4 c 0.14,0.17 0.17,0.26 0,0.45 -0.17,0.19 -0.09,0.21 0,0.4 a 0.86,0.86 0 0 1 0.12,-0.31 c 0.05,-0.1 0.07,-0.26 0.19,-0.31 a 0.18,0.18 0 0 1 0.12,0 0.9,0.9 0 0 0 0.35,0 0.35,0.35 0 0 1 0.35,0.21 l -0.33,0.16 c 0.07,0.14 0,0.19 -0.14,0.28 a 1.53,1.53 0 0 0 -0.19,0.21 3.42,3.42 0 0 0 0.38,-0.09 0.37,0.37 0 0 1 0.43,0.21 0.35,0.35 0 0 0 0.12,0.14 0.5,0.5 0 0 1 0.17,0.33 0.18,0.18 0 0 1 0,0.09 l -0.19,-0.14 a 0.13,0.13 0 0 0 -0.18,0 0.18,0.18 0 0 1 -0.25,0 0.44,0.44 0 0 0 -0.45,0 3.22,3.22 0 0 1 -0.33,0.19 0.85,0.85 0 0 1 0.63,0.43 c 0.07,0.14 0.17,0.28 0.24,0.43 a 0.25,0.25 0 0 1 -0.12,0.33 h -0.05 v -0.05 c 0,-0.12 -0.07,-0.14 -0.19,-0.12 A 0.26,0.26 0 0 1 26.35,14.7 1.1,1.1 0 0 0 25.8,14.18 l -0.21,-0.09 a 0.85,0.85 0 0 1 -0.09,0.26 0.63,0.63 0 0 1 -0.12,0.14 c -0.14,0.12 -0.14,0.14 0,0.31 0.14,0.17 0.07,0.09 0.12,0.17 a 0.49,0.49 0 0 1 -0.4,-0.17 1.77,1.77 0 0 1 -0.3,-0.47 0.39,0.39 0 0 1 0.14,-0.45 0.85,0.85 0 0 0 0.17,-0.24 L 24.4,13.45 a 1.6,1.6 0 0 1 0,0.33 c 0.024,0.403 0.024,0.807 0,1.21 a 7.7,7.7 0 0 1 -0.28,1.77 6,6 0 0 1 -0.5,1.28 9.54,9.54 0 0 1 -0.61,1.06 6.8,6.8 0 0 1 -0.64,0.8 5.9,5.9 0 0 1 -0.78,0.76 c -0.31,0.26 -0.64,0.47 -1,0.69 a 6.21,6.21 0 0 1 -1.56,0.71 9.81,9.81 0 0 1 -1.13,0.26 5.94,5.94 0 0 1 -0.64,0.09 0.43,0.43 0 0 0 -0.28,0.28 1.19,1.19 0 0 1 -0.52,0.78 c -0.12,0.09 -0.26,0.17 -0.4,0.26 l 0.07,-0.21 a 0.27,0.27 0 0 0 -0.07,-0.26 c -0.07,-0.07 -0.17,0 -0.26,0 -0.09,0 -0.17,0.12 -0.19,0.26 a 0.77,0.77 0 0 1 -0.45,0.59 h -0.12 a 1.45,1.45 0 0 0 0.07,-0.26 c 0,-0.07 -0.07,-0.14 -0.12,-0.21 -0.05,-0.07 -0.09,0 -0.14,0 l -0.43,0.21 -0.14,0.07 0.38,0.17 a 1,1 0 0 1 0.47,0.47 0.32,0.32 0 0 1 0,0.38 0.11,0.11 0 0 0 0,0.12 0.93,0.93 0 0 1 -0.09,0.71 c 0,0.07 -0.12,0.14 -0.17,0.21 L 14.8,25.5 a 0.09,0.09 0 0 0 -0.09,-0.09 0.74,0.74 0 0 1 -0.69,-0.4 l -0.07,-0.09 a 0.87,0.87 0 0 1 -0.52,0.35 1.07,1.07 0 0 0 -0.59,0.69 2,2 0 0 1 -0.17,0.5 0.45,0.45 0 0 1 -0.57,0.26 v 0.38 a 0.42,0.42 0 0 1 -0.3,-0.52 0.4,0.4 0 0 0 0,-0.17 0.62,0.62 0 0 1 0.21,-0.8 2.07,2.07 0 0 0 0.5,-0.52 0.12,0.12 0 0 0 0,-0.07 L 11.8,24.93 A 0.67,0.67 0 0 0 11.28,25 l -0.14,0.18 c -0.21,0.24 -0.31,0.26 -0.59,0.12 a 1,1 0 0 0 -0.12,0.64 0.75,0.75 0 0 1 -0.21,-0.38 0.79,0.79 0 0 1 0,-0.24 v -0.14 a 0.33,0.33 0 0 1 0,-0.21 0.83,0.83 0 0 1 0.43,-0.43 1.49,1.49 0 0 1 0.71,-0.24 c 0.19,-0.012 0.38,-0.012 0.57,0 h 0.14 A 0.8,0.8 0 0 0 11.6,23.85 L 11.06,23.64 A 0.23,0.23 0 0 1 10.8,23.45 0.09,0.09 0 0 0 10.71,23.36 0.85,0.85 0 0 0 10.24,23.5 c 0.07,-0.21 0.17,-0.43 0.4,-0.47 a 1.34,1.34 0 0 1 0.31,0 h 0.09 c 0.14,-0.21 0.35,-0.17 0.54,-0.07 0.277,0.132 0.507,0.344 0.66,0.61 a 0.54,0.54 0 0 0 0.35,0.28 1.36,1.36 0 0 0 -0.07,-0.54 0.38,0.38 0 0 0 -0.28,-0.35 C 12,22.89 11.93,22.72 12.05,22.46 A 0.6,0.6 0 0 0 11.46,22.34 C 11.53,22.15 11.81,22.08 12,22.1 a 1,1 0 0 0 0.57,0.14 0.43,0.43 0 0 1 0.31,0.24 l 0.14,0.28 c 0.12,0.21 0.21,0.45 0.31,0.66 0.14,-0.4 0.31,-0.83 0.47,-1.28 l -0.24,-0.09 -0.69,-0.28 a 7.8,7.8 0 0 1 -1.49,-0.85 0.85,0.85 0 0 0 -0.26,-0.09 c -0.07,0 -0.17,0.09 -0.12,0.17 0.05,0.08 0.12,0.09 0.17,0.17 0.05,0.08 0,0.07 0.09,0.12 h -0.12 a 0.8,0.8 0 0 1 -0.76,-0.5 2.56,2.56 0 0 1 -0.26,-0.95 0.09,0.09 0 0 0 0,-0.07 L 9.48,19.06 a 0.52,0.52 0 0 0 0,0.38 l 0.07,0.14 v 0.17 H 9.36 A 1.46,1.46 0 0 1 9.1,19.35 C 9.01,19 8.96,18.64 8.89,18.29 A 3.59,3.59 0 0 0 8.8,17.77 5.32,5.32 0 0 0 8.61,17.18 v 0.55 c 0,0.05 -0.12,0 -0.14,-0.09 A 1.43,1.43 0 0 1 8.28,17.03 4.63,4.63 0 0 1 8.49,15.54 4.41,4.41 0 0 1 8.66,15.02 0.71,0.71 0 0 1 8.57,15.18 L 8.48,15.27 V 15.15 A 1.23,1.23 0 0 1 8.65,14.51 C 8.82,14.13 9.03,13.75 9.22,13.38 A 3.61,3.61 0 0 1 9.48,13 l -0.17,0.18 -0.12,0.07 v -0.07 a 3.46,3.46 0 0 1 0.21,-0.31 3.72,3.72 0 0 1 0.78,-0.71 0.32,0.32 0 0 1 0.21,0 l 1,0.21 0.35,0.09 a 1.44,1.44 0 0 0 -0.24,0.33 0.43,0.43 0 0 0 0,0.39 0.15,0.15 0 0 1 0,0.17 2.66,2.66 0 0 0 -0.57,0.69 v 0.09 c 0,0 0.33,0.33 0.5,0.52 0.01,0.03 0.01,0.06 0,0.09 a 0.84,0.84 0 0 0 0,0.85 0.34,0.34 0 0 0 0.43,0.24 0.83,0.83 0 0 0 0.17,0.54 c 0.07,0.07 0.17,0.12 0.24,0.19 a 0.24,0.24 0 0 1 0.09,0.12 1,1 0 0 0 0.8,0.69 c 0.288,0.04 0.58,-0.02 0.83,-0.17 0.09,0 0.12,-0.07 0.14,0 0.056,0.349 0.168,0.686 0.33,1 0.207,0.366 0.463,0.702 0.76,1 0.267,0.255 0.594,0.44 0.95,0.54 0.44,0.099 0.9,-0.025 1.23,-0.33 a 3,3 0 0 0 0.52,-0.71 l 0.43,-0.69 a 2.3,2.3 0 0 1 0.71,-0.64 0.39,0.39 0 0 1 0.33,-0.07 l -0.07,0.14 a 0.54,0.54 0 0 0 0,0.57 c 0.07,0.09 0.12,0.09 0.17,0 0.05,-0.09 0.14,-0.26 0.33,-0.24 0.19,0.02 0.19,-0.12 0.21,-0.24 a 3,3 0 0 1 0.45,-1.47 1,1 0 0 1 0.17,-0.14 v 0.38 c 0.019,0.106 0.05,0.21 0.09,0.31 l 0.06,-0.13 a 0.21,0.21 0 0 1 0.19,-0.12 0.2,0.2 0 0 0 0.12,-0.07 0.61,0.61 0 0 0 0.12,-0.57 1.43,1.43 0 0 1 0,-0.45 1.1,1.1 0 0 1 0.14,-0.54 0.49,0.49 0 0 1 0.09,-0.14 h 0.07 v 0.33 a 0.18,0.18 0 0 0 0,0.09 h 0.09 l 0.18,-0.12 a 0.72,0.72 0 0 0 0.09,-0.4 0.7,0.7 0 0 1 0,-0.24 v -0.82 c 0,-0.11 0,-0.12 0.07,-0.19 l 0.11,-0.06 v 0.44 a 0.09,0.09 0 0 1 0.08,-0.05 z M 9.86,9.01 10.45,8.42 a 0.41,0.41 0 0 1 0.12,-0.09 c 0.07,-0.07 0,-0.14 0,-0.21 0,-0.07 -0.09,0 -0.17,0 H 10.31 V 8 a 0.59,0.59 0 0 1 0.33,-0.37 1.18,1.18 0 0 1 0.8,0 0.16,0.16 0 0 0 0.14,0 l 0.57,-0.31 c 0.09,0 0.07,-0.09 0,-0.14 -0.07,-0.05 -0.17,-0.12 -0.26,0 a 0.18,0.18 0 0 1 -0.09,0 c 0,-0.17 0.17,-0.31 0.33,-0.38 0.27,-0.083 0.56,-0.083 0.83,0 H 13 c 0.07,0 0.28,0.09 0.45,0 L 13.8,6.68 c 0.09,0 0.09,-0.07 0,-0.12 -0.09,-0.05 -0.12,-0.14 -0.21,-0.07 -0.09,0.07 0,0 -0.09,0 a 0.11,0.11 0 0 1 0,-0.15 0.83,0.83 0 0 1 0.61,-0.16 1,1 0 0 1 0.54,0.21 h 0.07 a 0.28,0.28 0 0 0 0.28,0.09 0.37,0.37 0 0 1 0.38,0 h 0.07 V 6.39 A 0.28,0.28 0 0 0 15.17,6.18 H 15.1 a 0.86,0.86 0 0 1 0.85,-0.12 c 0.206,0.084 0.386,0.222 0.52,0.4 a 0.57,0.57 0 0 0 0.17,0.07 1,1 0 0 1 0.4,0.07 c 0.12,0.07 0.07,0 0.09,0.09 A 0.27,0.27 0 0 0 17,6.33 H 16.8 V 6.18 a 0.86,0.86 0 0 1 0.33,0 c 0.316,0.037 0.6,0.208 0.78,0.47 0.07,0.12 0.128,0.247 0.17,0.38 a 0.49,0.49 0 0 1 0.45,0.19 H 18.6 A 0.52,0.52 0 0 0 18.72,7.18 0.38,0.38 0 0 0 18.46,6.83 h -0.07 c 0.09,0 0.17,-0.07 0.26,0 0.15,0.014 0.295,0.055 0.43,0.12 0.356,0.145 0.622,0.449 0.72,0.82 0.17,0.09 0.28,0.19 0.4,0.26 h 0.14 V 7.82 A 0.47,0.47 0 0 0 20.08,7.49 L 19.99,7.42 a 0.64,0.64 0 0 1 0.61,0.19 c 0.185,0.156 0.323,0.36 0.4,0.59 a 0.24,0.24 0 0 0 0.14,0.17 c 0.076,0.057 0.146,0.12 0.21,0.19 0.09,-0.26 -0.12,-0.4 -0.19,-0.59 a 0.54,0.54 0 0 1 0.4,0.19 c 0.14,0.146 0.266,0.303 0.38,0.47 0.072,0.122 0.152,0.239 0.24,0.35 0.072,0.134 0.119,0.28 0.14,0.43 a 2.81,2.81 0 0 1 -0.14,1 6,6 0 0 0 0,0.66 c 0.01,0.03 0.01,0.06 0,0.09 a 0.86,0.86 0 0 0 -0.31,0.59 2.86,2.86 0 0 0 0,0.9 v 0.07 a 1,1 0 0 0 -0.45,0.83 v 0.52 a 0.82,0.82 0 0 0 -0.62,0.56 c -0.07,0.14 -0.09,0.31 -0.17,0.45 -0.08,0.14 -0.09,0.09 -0.14,0.14 v -0.19 a 4.15,4.15 0 0 0 0.07,-0.95 3.37,3.37 0 0 0 -0.26,-1.37 v -0.17 a 1,1 0 0 0 0.28,-0.59 6.65,6.65 0 0 0 0,-1 0.93,0.93 0 0 0 -0.24,-0.64 0.58,0.58 0 0 0 -0.64,-0.13 0.77,0.77 0 0 0 -0.47,0.71 v 0.35 a 3.44,3.44 0 0 0 -1.25,-0.8 4.72,4.72 0 0 0 -0.83,-0.21 h -0.61 a 3.72,3.72 0 0 0 -1.16,0.19 c -0.21,0.07 -0.4,0.17 -0.61,0.24 a 0.15,0.15 0 0 1 -0.14,0 5.52,5.52 0 0 0 -1.44,-0.61 3.65,3.65 0 0 0 -0.73,-0.12 c -0.5,-0.1 -1,-0.17 -1.42,-0.3 A 3.46,3.46 0 0 1 9.98,9.18 0.36,0.36 0 0 0 9.86,9.01 Z m 9.45,4.7 c 0,0.17 -0.31,0.21 -0.64,0.12 v 0.35 a 0.48,0.48 0 0 1 0,0.12 h -0.14 a 2.83,2.83 0 0 1 -0.28,-0.26 0.42,0.42 0 0 0 -0.24,0.28 c -0.07,0.19 -0.17,0.21 -0.31,0 a 1.06,1.06 0 0 0 -0.17,-0.14 2.51,2.51 0 0 1 -0.21,0.26 0.2,0.2 0 0 1 -0.14,0.07 0.5,0.5 0 0 1 -0.09,-0.12 0.72,0.72 0 0 1 0,-0.21 c -0.12,0.31 -0.26,0.57 -0.61,0.64 a 0.7,0.7 0 0 1 0.07,-0.38 c 0.07,-0.12 0,0 0,-0.07 a 0.85,0.85 0 0 0 -0.26,0.57 c 0.016,0.433 0.128,0.857 0.33,1.24 0.14,0.35 0.31,0.69 0.45,1 0.128,0.317 0.186,0.658 0.17,1 a 0.9,0.9 0 0 1 -1.44,0.8 2.16,2.16 0 0 1 -0.59,-0.54 c -0.14,-0.19 -0.28,-0.38 -0.4,-0.57 A 3.16,3.16 0 0 1 14.64,17.44 V 17.3 a 0.26,0.26 0 0 1 0.26,0.17 c 0.05,0.08 0.26,0.4 0.4,0.59 0.115,0.23 0.288,0.426 0.5,0.57 a 0.58,0.58 0 0 0 0.76,-0.31 v -0.07 a 0.94,0.94 0 0 0 -0.07,-0.76 c -0.17,-0.38 -0.38,-0.76 -0.57,-1.13 a 4.11,4.11 0 0 1 -0.45,-1.28 1.54,1.54 0 0 1 0,-0.33 c -0.15,0.012 -0.3,0.012 -0.45,0 l -0.45,-0.12 -0.21,0.14 a 0.35,0.35 0 0 0 0,-0.14 0.5,0.5 0 0 0 -0.26,-0.45 0.19,0.19 0 0 0 -0.19,0.19 0.57,0.57 0 0 0 0.26,0.52 l 0.4,0.28 c 0.14,0.09 0.12,0.09 0.19,0 a 0.34,0.34 0 0 0 0,-0.14 c 0.19,0 0.26,0.12 0.28,0.31 0.046,0.24 0.11,0.478 0.19,0.71 a 0.38,0.38 0 0 1 -0.09,0.28 1.14,1.14 0 0 1 -0.47,0.35 0.65,0.65 0 0 1 -0.47,0 2.5,2.5 0 0 1 0.28,-0.24 0.35,0.35 0 0 0 0.09,-0.33 0.11,0.11 0 0 0 -0.09,-0.07 1.14,1.14 0 0 0 -0.28,0 0.29,0.29 0 0 0 -0.19,0.09 4,4 0 0 1 -0.52,0.35 0.79,0.79 0 0 1 -0.92,-0.14 0.93,0.93 0 0 1 -0.19,-0.33 l -0.07,-0.14 a 0.5,0.5 0 0 1 -0.12,0.09 c -0.05,0 -0.07,-0.12 0,-0.14 0.029,-0.13 0.07,-0.257 0.12,-0.38 a 0.15,0.15 0 0 0 0,-0.14 A 0.82,0.82 0 0 0 12,15.04 c -0.09,-0.07 -0.17,0 -0.24,0 h -0.12 a 1,1 0 0 0 0,-0.12 0.56,0.56 0 0 1 0.4,-0.45 h 0.12 a 2.11,2.11 0 0 1 -0.76,-0.5 c -0.07,-0.07 -0.09,-0.12 0,-0.19 0.09,-0.07 0.26,-0.23 0.4,-0.33 a 1.24,1.24 0 0 1 0.83,0 c 0.247,0.082 0.473,0.218 0.66,0.4 l 0.07,0.07 a 1.17,1.17 0 0 0 -0.73,-0.74 3.06,3.06 0 0 0 -0.95,-0.19 0.33,0.33 0 0 1 0.26,-0.24 l 0.54,-0.1 A 1.2,1.2 0 0 0 13,12.39 2,2 0 0 0 12.69,12.18 C 12.41,12.06 12.12,11.92 11.84,11.83 A 2.83,2.83 0 0 0 11.04,11.61 5.6,5.6 0 0 1 9.91,11.33 4.63,4.63 0 0 1 8.66,10.78 c -0.4,-0.26 -0.74,-0.6 -1,-1 A 1.4,1.4 0 0 1 7.52,9.45 V 9.33 H 7.64 L 7.8,9.42 c 0.26,0.21 0.5,0.47 0.76,0.66 a 3.15,3.15 0 0 0 1.06,0.5 c 0.31,0.07 0.61,0.14 0.92,0.19 0.31,0.05 0.52,0 0.78,0.07 l 0.57,0.07 c 0.217,0.015 0.432,0.055 0.64,0.12 0.33,0.12 0.64,0.26 0.95,0.38 a 0.11,0.11 0 0 0 0.12,0 c 0.13,-0.029 0.257,-0.07 0.38,-0.12 V 11.18 A 7.77,7.77 0 0 0 13.27,10.83 5,5 0 0 0 11.85,10.5 L 11.19,10.43 A 8.39,8.39 0 0 1 10.12,10.18 3.42,3.42 0 0 1 9.12,9.61 1.6,1.6 0 0 1 8.58,8.85 V 8.64 a 0.22,0.22 0 0 1 0.17,0 l 0.26,0.28 c 0.14,0.14 0.28,0.28 0.45,0.43 0.396,0.31 0.852,0.535 1.34,0.66 0.28,0.07 0.57,0.12 0.85,0.17 0.45,0.07 0.92,0.14 1.37,0.24 a 3,3 0 0 1 1.44,0.69 c 0.17,0.14 0.31,0.07 0.47,0 a 0.4,0.4 0 0 1 0.43,0.21 c 0.12,0.323 0.12,0.677 0,1 a 0.3,0.3 0 0 0 0.14,0.31 h 0.12 a 0.85,0.85 0 0 1 0.85,0.12 0.21,0.21 0 0 0 0.26,0 5.33,5.33 0 0 0 0.57,-0.31 c 0.19,-0.12 0.09,-0.17 0.14,-0.26 a 0.73,0.73 0 0 1 0.76,-0.4 c 0.215,0 0.43,0.023 0.64,0.07 a 1,1 0 0 0 0.52,0 0.51,0.51 0 0 0 0.44,-0.41 V 10.8 c 0,-0.07 0,-0.14 0.12,-0.14 0.12,0 0.09,0.09 0.09,0.17 0.072,0.33 0.072,0.67 0,1 A 0.55,0.55 0 0 1 19.4,12.3 h -0.85 a 0.48,0.48 0 0 0 -0.5,0.38 0.3,0.3 0 0 0 0,0.14 c 0.07,0.14 0.12,0.26 0.33,0.24 0.112,0.01 0.2,0.098 0.21,0.21 a 0.55,0.55 0 0 0 0.5,0.45 z m -5.57,-0.69 c 0.12,0.123 0.247,0.24 0.38,0.35 a 0.39,0.39 0 0 0 0.47,0 3.61,3.61 0 0 0 0.38,-0.26 v -0.07 a 0.32,0.32 0 0 0 -0.17,-0.21 0.51,0.51 0 0 0 -0.26,0 l -0.17,0.07 a 1,1 0 0 1 -0.52,0 z M 17,13.35 a 0.35,0.35 0 0 0 0.14,0.07 0.79,0.79 0 0 1 0.45,0.26 c 0.116,0.011 0.234,0.011 0.35,0 0.07,0 0.12,-0.07 0.19,-0.09 A 1.43,1.43 0 0 0 17.94,13.4 1.39,1.39 0 0 0 17,13.35 Z M 4.54,16.43 a 1,1 0 0 0 1,0.28 A 0.4,0.4 0 0 0 5.8,16.47 1.62,1.62 0 0 1 4.69,16.33 1.33,1.33 0 0 1 4.05,15.46 1.3,1.3 0 0 1 4.59,14.02 1.31,1.31 0 0 0 5.45,15.66 H 5.59 A 1.37,1.37 0 0 0 7.1,14.92 3.54,3.54 0 0 0 6.8,15.18 c -0.437,0.3 -1.013,0.3 -1.45,0 a 0.89,0.89 0 0 1 -0.05,-1.45 0.56,0.56 0 0 0 0.28,0.4 1.6,1.6 0 0 0 0.47,0.17 1.18,1.18 0 0 0 1,-0.31 1.5,1.5 0 0 0 0.33,-0.52 C 7.57,13.02 7.71,12.55 7.92,12.1 a 8.79,8.79 0 0 1 0.45,-0.8 c 0,-0.07 0.09,0 0.14,0 l 0.52,0.28 0.33,0.14 -0.14,0.12 a 5.32,5.32 0 0 0 -0.8,1.11 c -0.17,0.31 -0.33,0.59 -0.47,0.9 -0.14,0.31 -0.28,0.71 -0.4,1.06 l -0.28,0.8 C 7.2,15.92 7.1,16.11 7.01,16.32 a 1.48,1.48 0 0 1 -0.66,0.71 1.54,1.54 0 0 1 -0.55,0.15 2.28,2.28 0 0 1 -0.57,0 0.76,0.76 0 0 1 -0.67,-0.54 0.37,0.37 0 0 0 -0.02,-0.21 z m 14.07,-0.8 c 0.012,0.11 0.012,0.22 0,0.33 0,0.14 -0.09,0.14 -0.21,0.07 L 18.12,15.89 H 18 a 0.58,0.58 0 0 1 0,0.52 0.24,0.24 0 0 1 -0.09,0.12 H 17.8 l -0.07,-0.21 a 0.23,0.23 0 0 0 -0.3,-0.12 0.87,0.87 0 0 0 -0.26,0.12 H 17.03 A 3.11,3.11 0 0 1 16.7,15.26 l 0.1,0.12 a 0.47,0.47 0 0 0 0.57,0 0.39,0.39 0 0 0 0,-0.33 c 0,-0.07 -0.07,-0.12 -0.09,-0.19 0.14,0 0.14,-0.12 0.5,0.31 l 0.26,-0.14 c 0.09,0 0,-0.14 0,-0.19 v -0.21 l 0.17,0.07 a 0.24,0.24 0 0 1 0.12,0.09 3,3 0 0 0 0.5,0.45 0.47,0.47 0 0 1 0.17,0.38 v 0.09 H 18.93 C 18.68,15.63 18.68,15.63 18.61,15.63 Z M 6.8,14.04 A 1.05,1.05 0 0 0 6.16,13.9 1.14,1.14 0 0 1 5.88,13.9 0.38,0.38 0 0 1 5.6,13.36 c 0.09,0 0.17,0.12 0.26,0.17 0.09,0.05 0.12,0 0.12,-0.07 a 0.29,0.29 0 0 1 0.17,-0.28 0.45,0.45 0 0 1 0.45,0.09 c 0.202,0.2 0.28,0.496 0.2,0.77 z"
       fill="#ffffff"
       id="path4-2" /></g></svg>
