<?xml version="1.0" encoding="UTF-8" standalone="no"?>
<svg
   width="400"
   height="120"
   viewBox="0 0 400 120"
   version="1.1"
   id="svg4"
   sodipodi:docname="BSV-AHD-1.svg"
   xml:space="preserve"
   inkscape:version="1.4 (e7c3feb100, 2024-10-09)"
   inkscape:export-filename="BSV-AHD-1.png"
   inkscape:export-xdpi="96"
   inkscape:export-ydpi="96"
   xmlns:inkscape="http://www.inkscape.org/namespaces/inkscape"
   xmlns:sodipodi="http://sodipodi.sourceforge.net/DTD/sodipodi-0.dtd"
   xmlns="http://www.w3.org/2000/svg"
   xmlns:svg="http://www.w3.org/2000/svg"><sodipodi:namedview
     id="namedview4"
     pagecolor="#ffffff"
     bordercolor="#000000"
     borderopacity="0.25"
     inkscape:showpageshadow="2"
     inkscape:pageopacity="0.0"
     inkscape:pagecheckerboard="true"
     inkscape:deskcolor="#d1d1d1"
     inkscape:zoom="2.21875"
     inkscape:cx="184.33803"
     inkscape:cy="66.478873"
     inkscape:window-width="1920"
     inkscape:window-height="1056"
     inkscape:window-x="1920"
     inkscape:window-y="0"
     inkscape:window-maximized="1"
     inkscape:current-layer="svg4" /><defs
     id="defs2"><filter
       id="softShadow"
       x="-0.025874999"
       y="-0.086249995"
       width="1.05925"
       height="1.1975"><feGaussianBlur
         in="SourceAlpha"
         stdDeviation="3.9999997"
         id="feGaussianBlur1" /><feOffset
         dx="3"
         dy="3"
         result="offsetblur"
         id="feOffset1" /><feComponentTransfer
         result="shadowAlpha"
         id="feComponentTransfer1"><feFuncA
           type="linear"
           slope="0.35"
           id="feFuncA1" /></feComponentTransfer><feMerge
         id="feMerge2"><feMergeNode
           in="shadowAlpha"
           id="feMergeNode1" /><feMergeNode
           in="SourceGraphic"
           id="feMergeNode2" /></feMerge></filter></defs><path
     d="m 193.66197,150.33803 c -72.06512,0 -130.478873,-58.413761 -130.478873,-130.478872 0,-72.065115 58.413753,-130.478878 130.478873,-130.478878 72.06511,0 130.47887,58.413763 130.47887,130.478878 0,72.065111 -58.41376,130.478872 -130.47887,130.478872 z M 243.81478,8.197609 a 0.73394367,0.73394367 0 0 0 -0.65239,0.407746 V 5.017186 l -0.89704,0.489296 c -0.57085,0.570845 -0.57085,0.652394 -0.57085,1.549436 v 6.687043 a 5.7084508,5.7084508 0 0 0 0,1.957183 5.8715494,5.8715494 0 0 1 -0.73394,3.261972 l -1.46789,0.978591 h -0.73394 a 1.4678873,1.4678873 0 0 1 0,-0.733943 v -2.691127 h -0.57085 a 3.9959155,3.9959155 0 0 0 -0.73394,1.14169 8.9704227,8.9704227 0 0 0 -1.14169,4.403662 c -0.19572,1.223239 -0.19572,2.446479 0,3.66972 a 4.9745071,4.9745071 0 0 1 -0.97859,4.64831 1.6309859,1.6309859 0 0 1 -0.9786,0.57084 1.7125352,1.7125352 0 0 0 -1.54943,0.97859 l -0.4893,1.06015 a 12.477042,12.477042 0 0 1 -0.73394,-2.52803 v -3.09888 a 8.1549297,8.1549297 0 0 0 -1.38634,1.14169 24.464789,24.464789 0 0 0 -3.66972,11.98775 c -0.1631,0.97859 -0.1631,2.12028 -1.71253,1.95718 -1.54944,-0.16309 -2.28338,1.22324 -2.69113,1.95719 -0.40775,0.73394 -0.81549,0.73394 -1.38634,0 a 4.403662,4.403662 0 0 1 0,-4.64831 l 0.57085,-1.14169 a 3.1804226,3.1804226 0 0 0 -2.69113,0.57084 18.756338,18.756338 0 0 0 -5.79,5.21916 l -3.50662,5.6269 a 24.464789,24.464789 0 0 1 -4.24056,5.79 11.172254,11.172254 0 0 1 -10.03057,2.69113 18.348592,18.348592 0 0 1 -7.74718,-4.40367 38.24662,38.24662 0 0 1 -6.19775,-8.15493 27.237465,27.237465 0 0 1 -2.69112,-8.15493 c -0.1631,-0.57084 -0.40775,0 -1.14169,0 -2.03874,1.22324 -4.41998,1.71254 -6.7686,1.38634 a 8.1549297,8.1549297 0 0 1 -6.52394,-5.6269 1.9571831,1.9571831 0 0 0 -0.73394,-0.97859 c -0.57085,-0.57085 -1.38634,-0.97859 -1.95719,-1.54944 a 6.7685916,6.7685916 0 0 1 -1.38633,-4.40366 2.7726761,2.7726761 0 0 1 -3.50662,-1.957182 6.8501409,6.8501409 0 0 1 0,-6.931691 1.1416902,1.1416902 0 0 0 0,-0.733943 c -1.38634,-1.549437 -4.07747,-4.240564 -4.07747,-4.240564 v -0.733943 c 1.22324,-2.120282 2.78899,-4.028536 4.64831,-5.626902 a 1.2232395,1.2232395 0 0 0 0,-1.386338 3.5066198,3.5066198 0 0 1 0,-3.180423 11.743099,11.743099 0 0 1 1.95718,-2.69112597 l -2.85422,-0.73394403 -8.15493,-1.712535 a 2.6095775,2.6095775 0 0 0 -1.71254,0 30.336338,30.336338 0 0 0 -6.36084,5.79 28.216057,28.216057 0 0 0 -1.71254,2.528028 v 0.570845 l 0.9786,-0.570845 1.38633,-1.467887 a 29.439296,29.439296 0 0 0 -2.12028,3.098873 c -1.54943,3.017324 -3.26197,6.116197 -4.64831,9.21507 a 10.030564,10.030564 0 0 0 -1.38634,5.219155 v 0.978592 l 0.73395,-0.733944 a 5.7900001,5.7900001 0 0 0 0.73394,-1.304788 35.96324,35.96324 0 0 0 -1.38634,4.240563 37.757324,37.757324 0 0 0 -1.71253,12.150849 c 0.13863,1.75331 0.66055,3.45769 1.54943,4.9745 0.1631,0.73395 1.14169,1.14169 1.14169,0.73395 v -4.48521 c 0.61162,1.5739 1.12538,3.18042 1.54944,4.8114 0.35066,1.38634 0.59531,2.81346 0.73394,4.24057 0.57085,2.85422 0.9786,5.79 1.71254,8.64422 0.52192,1.19878 1.23955,2.29969 2.12028,3.26198 h 1.54944 v -1.38634 l -0.57085,-1.14169 a 4.2405634,4.2405634 0 0 1 0,-3.09888 l 5.21916,5.79 a 0.73394367,0.73394367 0 0 1 0,0.57085 c 0.19572,2.69113 0.92151,5.32517 2.12028,7.74718 a 6.5239438,6.5239438 0 0 0 6.19775,4.07747 h 0.97859 c -0.73395,-0.40775 -0.3262,-0.3262 -0.73395,-0.97859 -0.40774,-0.6524 -0.97859,-0.73395 -1.38633,-1.38634 -0.40775,-0.6524 0.40774,-1.38634 0.97859,-1.38634 a 6.9316902,6.9316902 0 0 1 2.12028,0.73394 63.608452,63.608452 0 0 0 12.15085,6.93169 l 5.6269,2.28338 1.95718,0.73395 c -1.30479,3.66972 -2.69113,7.17634 -3.83282,10.43831 -0.81549,-1.71254 -1.54943,-3.66972 -2.52803,-5.38226 l -1.14169,-2.28338 a 3.5066198,3.5066198 0 0 0 -2.52802,-1.95718 8.1549297,8.1549297 0 0 1 -4.64831,-1.14169 c -1.54944,-0.1631 -3.83282,0.40775 -4.40367,1.95718 a 4.8929578,4.8929578 0 0 1 4.81141,0.97859 c -0.97859,2.12029 -0.40774,3.50662 1.54944,4.07747 a 3.0988733,3.0988733 0 0 1 2.28338,2.85422 c 0.4893,1.41081 0.67686,2.91131 0.57084,4.40367 a 4.403662,4.403662 0 0 1 -2.85422,-2.28338 12.313944,12.313944 0 0 0 -5.38225,-4.97451 c -1.54944,-0.81549 -3.26198,-1.14169 -4.40367,0.57084 h -0.73394 a 10.927606,10.927606 0 0 0 -2.52803,0 c -1.87563,0.3262 -2.69112,2.12029 -3.26197,3.83282 a 6.9316902,6.9316902 0 0 1 3.83282,-1.14169 c 0.40774,0 0.73394,0.3262 0.73394,0.73394 a 1.8756338,1.8756338 0 0 0 2.12028,1.54944 l 4.40366,1.71254 a 6.5239438,6.5239438 0 0 1 3.83282,3.66972 h -1.14169 a 37.10493,37.10493 0 0 0 -4.64831,0 12.150845,12.150845 0 0 0 -5.79,1.95718 6.7685916,6.7685916 0 0 0 -3.50662,3.506611 2.6911268,2.6911268 0 0 0 0,1.71254 v 1.14169 a 6.4423945,6.4423945 0 0 0 0,1.95718 6.1161973,6.1161973 0 0 0 1.71254,3.09888 8.1549297,8.1549297 0 0 1 0.97859,-5.21916 c 2.28338,1.14169 3.09887,0.97859 4.81141,-0.97859 l 1.14169,-1.46789 a 5.4638029,5.4638029 0 0 1 4.24056,-0.57084 l 5.79,0.73394 a 0.97859156,0.97859156 0 0 1 0,0.57085 16.880704,16.880704 0 0 1 -4.07746,4.24056 5.0560564,5.0560564 0 0 0 -1.71254,6.52394 3.2619719,3.2619719 0 0 1 0,1.38634 3.4250705,3.4250705 0 0 0 2.44648,4.24056 v -3.09887 a 3.6697184,3.6697184 0 0 0 4.64831,-2.12028 16.309859,16.309859 0 0 0 1.38634,-4.07747 c 0.69317,-2.4954 2.44648,-4.5586 4.81141,-5.6269 a 7.0947888,7.0947888 0 0 0 4.24056,-2.85422 l 0.57084,0.73394 a 6.034648,6.034648 0 0 0 5.62691,3.26197 c 0.40774,0 0.73394,0.3262 0.73394,0.73395 l 0.57084,3.91436 c 0.40775,-0.57084 1.38634,-1.14169 1.38634,-1.71253 a 7.5840846,7.5840846 0 0 0 0.73395,-5.79 0.89704227,0.89704227 0 0 1 0,-0.97859 2.6095775,2.6095775 0 0 0 0,-3.098871 8.1549297,8.1549297 0 0 0 -3.83282,-3.83282 l -3.09887,-1.38634 1.14169,-0.57084 3.50662,-1.71254 c 0.40774,0 0.73394,-0.57084 1.14169,0 0.40774,0.57085 0.97859,1.14169 0.97859,1.71254 a 11.824648,11.824648 0 0 1 -0.57085,2.12028 h 0.97859 a 6.2792959,6.2792959 0 0 0 3.66972,-4.81141 c 0.1631,-1.14169 0.8155,-2.12028 1.54944,-2.12028 0.73394,0 1.54944,-0.57085 2.12028,0 a 2.201831,2.201831 0 0 1 0.57085,2.12028 l -0.57085,1.71254 c 1.14169,-0.73395 2.28338,-1.38634 3.26197,-2.12029 2.2263,-1.45157 3.75127,-3.75126 4.24057,-6.36084 a 3.5066198,3.5066198 0 0 1 2.28338,-2.28338 48.440282,48.440282 0 0 0 5.21915,-0.73395 79.99986,79.99986 0 0 0 9.21507,-2.12028 50.642113,50.642113 0 0 0 12.72169,-5.79 c 2.93578,-1.79408 5.6269,-3.50662 8.15493,-5.6269 a 48.114085,48.114085 0 0 0 6.36085,-6.19775 55.453522,55.453522 0 0 0 5.21915,-6.52394 c 1.84302,-2.77268 3.50662,-5.65952 4.97451,-8.64422 a 48.929578,48.929578 0 0 0 4.07746,-10.43831 62.792959,62.792959 0 0 0 2.28338,-14.43423 83.832677,83.832677 0 0 0 0,-9.867465 13.047888,13.047888 0 0 0 0,-2.691127 l 5.79,1.549437 a 6.9316902,6.9316902 0 0 1 -1.38633,1.957183 3.1804226,3.1804226 0 0 0 -1.14169,3.669718 c 0.61162,1.402648 1.43526,2.691127 2.44648,3.832817 a 3.9959155,3.9959155 0 0 0 3.26197,1.386338 c -0.40775,-0.652394 0.1631,0 -0.97859,-1.386338 -1.14169,-1.386338 -1.14169,-1.549437 0,-2.528028 a 5.1376057,5.1376057 0 0 0 0.97859,-1.14169 6.9316902,6.9316902 0 0 0 0.73394,-2.120282 l 1.71254,0.733944 a 8.9704227,8.9704227 0 0 1 4.48521,4.240563 2.1202817,2.1202817 0 0 0 2.69112,1.386338 c 0.9786,-0.163098 1.54944,0 1.54944,0.978592 v 0.407746 h 0.40775 a 2.0387324,2.0387324 0 0 0 0.97859,-2.691127 c -0.57085,-1.223239 -1.38634,-2.364929 -1.95718,-3.506619 a 6.9316902,6.9316902 0 0 0 -5.13761,-3.50662 26.258874,26.258874 0 0 0 2.69113,-1.549437 3.5881691,3.5881691 0 0 1 3.66972,0 1.4678873,1.4678873 0 0 0 2.03873,0 1.0601409,1.0601409 0 0 1 1.46788,0 l 1.54944,1.14169 a 1.4678873,1.4678873 0 0 0 0,-0.733943 4.0774648,4.0774648 0 0 0 -1.38634,-2.691127 2.8542254,2.8542254 0 0 1 -0.97859,-1.14169 3.017324,3.017324 0 0 0 -3.50662,-1.712535 27.88986,27.88986 0 0 1 -3.09887,0.733943 12.477042,12.477042 0 0 1 1.54944,-1.712535 c 1.14169,-0.733944 1.71253,-1.14169 1.14169,-2.28337997 l 2.69112,-1.304789 a 2.8542254,2.8542254 0 0 0 -2.85422,-1.71253503 7.3394367,7.3394367 0 0 1 -2.85423,0 1.4678873,1.4678873 0 0 0 -0.97859,0 c -0.97859,0.407746 -1.14169,1.71253503 -1.54944,2.52802803 A 7.0132395,7.0132395 0 0 0 275.21126,2.570707 c -0.73394,-1.549437 -1.38634,-1.71253497 0,-3.26197197 1.38634,-1.54943603 1.14169,-2.28338003 0,-3.66971803 a 3.2619719,3.2619719 0 0 0 0,-3.261972 3.1804226,3.1804226 0 0 0 -2.44648,2.935775 h -0.73394 c -1.54944,-0.244648 -2.28338,1.304788 -2.28338,2.854225 0.0979,1.79408503 0.0979,3.588169 0,5.382254 h -0.57085 a 3.9959155,3.9959155 0 0 0 -0.73394,-1.141691 76.49324,76.49324 0 0 0 -5.6269,-5.626901 14.271127,14.271127 0 0 0 -6.19775,-3.669718 c -0.57084,0 -0.57084,-0.733944 -0.57084,-0.733944 a 18.430141,18.430141 0 0 0 -3.66972,-6.523944 8.8073241,8.8073241 0 0 1 -2.52803,-5.626901 c 0,-0.570845 -0.73394,-0.978592 -0.73394,-1.549437 a 13.618733,13.618733 0 0 0 -0.57085,9.29662 c 0.4893,1.410803 0.67686,2.9113101 0.57085,4.403662 a 8.1549297,8.1549297 0 0 0 -1.63099,0.978592 c -0.40775,0.407746 -1.38634,1.549436 -1.38634,0.978591 v -0.570845 a 2.4464789,2.4464789 0 0 0 0,-1.14169 2.6911268,2.6911268 0 0 0 -0.57084,-0.7339439 l -0.57085,0.5708449 a 2.4464789,2.4464789 0 0 1 0,1.14169 13.94493,13.94493 0 0 0 0.57085,8.888874 3.2619719,3.2619719 0 0 1 0,2.28338 4.5667606,4.5667606 0 0 1 0,1.549437 c -1.14169,-0.407747 -1.14169,0.163098 -1.14169,0.733943 z M 143.5907,-28.988871 a 2.9357747,2.9357747 0 0 1 0.97859,1.386338 c 2.65851,1.696226 5.57797,2.935775 8.64422,3.669719 3.42507,1.06014 7.50254,1.630986 11.58,2.446479 2.01427,0.122323 4.00407,0.448521 5.9531,0.978591 4.13455,1.092761 8.08154,2.772676 11.7431,4.974507 a 1.2232395,1.2232395 0 0 0 1.14169,0 c 1.71254,-0.570845 3.26197,-1.386338 4.97451,-1.957183 a 30.336338,30.336338 0 0 1 9.45972,-1.549437 h 4.9745 c 2.29969,0.366972 4.56676,0.937817 6.7686,1.712536 3.83281,1.410802 7.31497,3.637098 10.19366,6.523943 v -2.854225 c 0,-2.528028 1.50866,-4.811409 3.83281,-5.79 a 4.7298592,4.7298592 0 0 1 5.21916,1.060141 7.5840846,7.5840846 0 0 1 1.95718,5.219155 54.230282,54.230282 0 0 1 0,8.154929 8.1549297,8.1549297 0 0 1 -2.28338,4.81140903 V 1.184369 c 1.47604,3.53924 2.20183,7.339437 2.12028,11.172254 a 33.842958,33.842958 0 0 1 -0.57084,7.747183 v 1.549437 c 0.40775,-0.407747 0.4893,0 1.14169,-1.141691 0.65239,-1.14169 0.81549,-2.528028 1.38634,-3.669718 a 6.6870423,6.6870423 0 0 1 5.05605,-4.566761 V 8.03451 A 8.1549297,8.1549297 0 0 1 241.5314,1.265918 V 0.69507303 a 23.323099,23.323099 0 0 1 0,-7.33943603 7.0132395,7.0132395 0 0 1 2.52803,-4.811409 1.1416902,1.1416902 0 0 0 0,-0.733944 48.929578,48.929578 0 0 1 0,-5.382253 22.915352,22.915352 0 0 0 1.14169,-8.15493 10.519859,10.519859 0 0 0 -1.14169,-3.50662 25.117183,25.117183 0 0 1 -1.95718,-2.854225 30.010141,30.010141 0 0 0 -3.09888,-3.832817 4.403662,4.403662 0 0 0 -3.26197,-1.549438 c 0.57085,1.549438 2.28338,2.691128 1.54944,4.81141 a 12.477042,12.477042 0 0 0 -1.71254,-1.549437 1.9571831,1.9571831 0 0 1 -1.14169,-1.386338 10.764507,10.764507 0 0 0 -3.26197,-4.811409 5.219155,5.219155 0 0 0 -4.97451,-1.549437 l 0.73395,0.570845 a 3.832817,3.832817 0 0 1 2.12028,2.691127 v 1.712535 h -1.14169 c -0.97859,-0.570845 -1.87563,-1.386338 -3.26197,-2.120282 a 9.9490142,9.9490142 0 0 0 -5.87155,-6.687042 10.275211,10.275211 0 0 0 -3.50662,-0.978592 c -0.73394,-0.570845 -1.38634,0 -2.12028,0 h 0.57084 a 3.0988733,3.0988733 0 0 1 2.12028,2.854226 4.2405634,4.2405634 0 0 1 -0.97859,0.326197 h -0.57084 a 3.9959155,3.9959155 0 0 0 -3.66972,-1.549437 14.923521,14.923521 0 0 0 -1.38634,-3.098873 8.9704227,8.9704227 0 0 0 -6.36084,-3.832817 7.0132395,7.0132395 0 0 0 -2.69113,0 v 1.22324 h 1.63098 a 2.201831,2.201831 0 0 1 1.06015,2.935774 c -0.1631,-0.733943 0.24464,-0.163098 -0.73395,-0.733943 a 8.1549297,8.1549297 0 0 0 -3.26197,-0.570845 4.6483099,4.6483099 0 0 1 -1.38634,-0.570846 10.112113,10.112113 0 0 0 -4.24056,-3.261971 7.0132395,7.0132395 0 0 0 -6.93169,0.978591 h 0.57084 a 2.2833803,2.2833803 0 0 1 2.28338,1.712535 v 0.733944 h -0.57084 a 3.017324,3.017324 0 0 0 -3.09887,0 2.2833803,2.2833803 0 0 1 -2.28338,-0.733944 h -0.57085 a 8.1549297,8.1549297 0 0 0 -4.40366,-1.712535 6.7685916,6.7685916 0 0 0 -4.97451,1.304789 0.89704227,0.89704227 0 0 0 0,1.223239 c 0.73394,0 0,0.570845 0.73394,0 0.73395,-0.570845 0.9786,0.163099 1.71254,0.570845 0.73394,0.407747 0.73394,0.978592 0,0.978592 l -2.85423,0.978592 c -1.38633,0.733943 -3.09887,0 -3.66971,0 h -0.3262 a 11.498451,11.498451 0 0 0 -6.76859,0 c -1.30479,0.570845 -2.69113,1.712535 -2.69113,3.098873 a 1.4678873,1.4678873 0 0 0 0.73394,0 c 0.73395,-0.978592 1.54944,-0.407747 2.12029,0 0.57084,0.407746 0.73394,1.14169 0,1.14169 l -4.64831,2.528028 a 1.3047888,1.3047888 0 0 1 -1.14169,0 9.622817,9.622817 0 0 0 -6.52395,0 4.8114085,4.8114085 0 0 0 -2.69112,3.017324 v 0.978592 h 0.73394 c 0.65239,0 1.38634,-0.570845 1.38634,0 0,0.570846 0.57084,1.141691 0,1.712536 a 3.3435212,3.3435212 0 0 0 -0.97859,0.733944 z m 77.06408,38.32817 -1.79408,0.08155 A 4.4852113,4.4852113 0 0 1 214.78323,5.751131 1.8756338,1.8756338 0 0 0 213.0707,4.038595 c -1.71254,0.163099 -2.12028,-0.815493 -2.69113,-1.957183 a 2.4464789,2.4464789 0 0 1 0,-1.14168997 3.9143663,3.9143663 0 0 1 4.07747,-3.09887303 h 6.93169 a 4.4852113,4.4852113 0 0 0 4.9745,-3.832817 19.082535,19.082535 0 0 0 0,-8.15493 c 0,-0.652394 0.24465,-1.386338 -0.73394,-1.386338 -0.97859,0 -0.97859,0.570845 -0.97859,1.14169 v 5.2191551 a 4.1590141,4.1590141 0 0 1 -3.58817,3.3435219 8.1549297,8.1549297 0 0 1 -4.24056,0 23.893944,23.893944 0 0 0 -5.21916,-0.570846 5.9530987,5.9530987 0 0 0 -6.19775,3.261972 c -0.40774,0.733944 0.40775,1.14169 -1.14169,2.120282 a 43.465775,43.465775 0 0 1 -4.64831,2.528028 1.7125352,1.7125352 0 0 1 -2.12028,0 6.9316902,6.9316902 0 0 0 -6.93169,-0.97859097 h -0.97859 a 2.4464789,2.4464789 0 0 1 -1.14169,-2.52802903 11.743099,11.743099 0 0 0 0,-8.154929 3.2619719,3.2619719 0 0 0 -3.50662,-1.712535 c -1.30479,0.570845 -2.44648,1.14169 -3.83282,0 a 24.464789,24.464789 0 0 0 -11.7431,-5.626902 c -3.66971,-0.815494 -7.50253,-1.386339 -11.17225,-1.957184 -2.28338,-0.407747 -4.64831,-0.815493 -6.93169,-1.386338 a 29.602395,29.602395 0 0 1 -10.92761,-5.382254 77.961128,77.961128 0 0 1 -3.66971,-3.506619 l -2.12029,-2.283381 a 1.7940845,1.7940845 0 0 0 -1.38633,0 v 1.712535 c 0.81549,2.454634 2.35677,4.615691 4.40366,6.197747 a 27.88986,27.88986 0 0 0 8.15493,4.64831 c 2.85422,0.872577 5.77369,1.549437 8.72577,2.038732 l 5.38226,0.570845 a 40.774648,40.774648 0 0 1 11.58,2.691127 c 1.97349,0.856268 3.91436,1.80224 5.79,2.854226 v 0.897042 a 18.919437,18.919437 0 0 1 -3.09888,0.9785911 0.89704227,0.89704227 0 0 1 -0.97859,0 c -2.52803,-0.9785911 -5.05605,-2.1202811 -7.74718,-3.0988731 a 22.589155,22.589155 0 0 0 -5.21916,-0.978591 l -4.64831,-0.570845 c -2.12028,-0.570846 -3.83281,-0.163099 -6.36084,-0.570846 -2.52803,-0.407746 -4.97451,-0.978591 -7.50254,-1.549436 a 25.688029,25.688029 0 0 1 -8.64422,-4.077465 c -2.12028,-1.549437 -4.07747,-3.669718 -6.19775,-5.382254 l -1.30479,-0.733943 h -0.97859 v 0.978591 a 11.416902,11.416902 0 0 0 1.14169,2.691127 c 2.12028,3.261972 4.89296,6.034648 8.15493,8.15493 3.15596,1.989803 6.58918,3.50662 10.19366,4.485211 a 45.667606,45.667606 0 0 0 9.21507,2.2833801 c 2.25076,0.2772679 4.4526,0.8807329 6.52395,1.7940849 2.28338,0.733944 4.64831,1.875634 6.93169,2.854225 a 16.309859,16.309859 0 0 1 2.52803,1.712536 9.7859156,9.7859156 0 0 1 -4.24057,2.12028103 L 160.55295,1.510566 a 2.6911268,2.6911268 0 0 0 -2.12028,1.957183 c 2.65035,0.09786 5.25993,0.62793 7.74718,1.549437 2.82161,0.978592 5.02344,3.204887 5.9531,6.034648 l -0.57084,-0.570845 a 14.026479,14.026479 0 0 0 -5.38226,-3.261972 10.112113,10.112113 0 0 0 -6.76859,0 c -1.14169,0.815493 -2.52803,2.120282 -3.26197,2.691127 -0.73395,0.570845 -0.57085,0.978591 0,1.549436 1.74515,1.794085 3.85728,3.180423 6.19775,4.077465 h -0.9786 a 4.5667606,4.5667606 0 0 0 -3.26197,3.669719 8.1549297,8.1549297 0 0 1 0,0.978591 h 0.97859 c 0.57085,0 1.22324,-0.570845 1.95719,0 a 6.6870423,6.6870423 0 0 1 2.52802,2.120282 1.2232395,1.2232395 0 0 1 0,1.14169 18.919437,18.919437 0 0 0 -0.97859,3.098872 c -0.57084,0.1631 -0.40774,1.14169 0,1.14169 a 4.0774648,4.0774648 0 0 0 0.97859,-0.73394 l 0.57085,1.14169 a 7.5840846,7.5840846 0 0 0 1.54944,2.69112 6.4423945,6.4423945 0 0 0 7.50253,1.14169 32.619719,32.619719 0 0 0 4.24056,-2.85422 2.3649296,2.3649296 0 0 1 1.54944,-0.73394 9.2966198,9.2966198 0 0 1 2.28338,0 0.89704227,0.89704227 0 0 1 0.73395,0.57084 2.8542254,2.8542254 0 0 1 -0.73395,2.69113 20.387324,20.387324 0 0 0 -2.28338,1.95718 5.3007043,5.3007043 0 0 0 3.83282,0 9.2966198,9.2966198 0 0 0 3.83282,-2.85422 3.0988733,3.0988733 0 0 0 0.73394,-2.28338 41.427043,41.427043 0 0 1 -1.54944,-5.790005 c -0.1631,-1.549437 -0.73394,-2.528028 -2.28338,-2.528028 a 2.7726761,2.7726761 0 0 1 0,1.14169 c -0.57084,0.733944 -0.40774,0.733944 -1.54943,0 l -3.26198,-2.28338 a 4.6483099,4.6483099 0 0 1 -2.12028,-4.240564 1.5494366,1.5494366 0 0 1 1.54944,-1.549436 4.0774648,4.0774648 0 0 1 2.12028,3.669718 2.8542254,2.8542254 0 0 1 0,1.14169 l 1.71254,-1.14169 3.66971,0.978592 c 1.22324,0.09786 2.44648,0.09786 3.66972,0 a 12.558592,12.558592 0 0 0 0,2.691126 c 0.63609,3.661564 1.87564,7.184497 3.66972,10.438307 1.54944,3.01733 3.26197,6.1162 4.64831,9.21507 a 7.6656339,7.6656339 0 0 1 0.57085,6.19775 v 0.57085 a 4.7298592,4.7298592 0 0 1 -6.19775,2.52802 12.313944,12.313944 0 0 1 -4.07747,-4.64831 c -1.14169,-1.54943 -2.85422,-4.15901 -3.26197,-4.8114 a 2.1202817,2.1202817 0 0 0 -2.12028,-1.38634 v 1.14169 c 0.37513,1.19877 0.83996,2.37308 1.38634,3.50662 0.97859,1.54943 2.12028,3.09887 3.26197,4.64831 1.31294,1.75331 2.94393,3.24566 4.81141,4.40366 a 7.3394367,7.3394367 0 0 0 11.7431,-6.52394 19.327183,19.327183 0 0 0 -1.38634,-8.15493 c -1.14169,-2.52803 -2.52803,-5.30071 -3.66972,-8.15493 a 23.567747,23.567747 0 0 1 -2.69113,-10.112117 6.9316902,6.9316902 0 0 1 2.12029,-4.64831 c 0,0.570845 0.57084,-0.407746 0,0.570845 a 5.7084508,5.7084508 0 0 0 -0.57085,3.098874 c 2.85423,-0.570845 3.99592,-2.691127 4.97451,-5.219155 a 5.8715494,5.8715494 0 0 0 0,1.712535 4.0774648,4.0774648 0 0 0 0.73394,0.978591 1.6309859,1.6309859 0 0 0 1.14169,-0.570845 20.468874,20.468874 0 0 0 1.71254,-2.120281 c 0.49745,0.326197 0.96228,0.717633 1.38634,1.14169 1.14169,1.712535 1.95718,1.549436 2.52802,0 a 3.4250705,3.4250705 0 0 1 1.95719,-2.28338 c 0.70948,0.758408 1.46788,1.467887 2.28338,2.120281 h 1.14169 a 3.9143663,3.9143663 0 0 0 0,-0.978591 V 10.31789 c 2.69112,0.733944 5.21915,0.407747 5.21915,-0.978591 z m -45.42296,-5.626902 0.89705,-0.978591 a 8.1549297,8.1549297 0 0 0 4.24056,0 l 1.38634,-0.570845 a 4.1590141,4.1590141 0 0 1 2.12028,0 2.6095775,2.6095775 0 0 1 1.38634,1.712535 v 0.570845 a 29.439296,29.439296 0 0 1 -3.09888,2.120282 3.1804226,3.1804226 0 0 1 -3.83281,0 39.714508,39.714508 0 0 1 -3.09888,-2.854226 z m 26.58507,2.691127 a 11.335352,11.335352 0 0 1 7.66564,0.407747 c 0.57084,0.464831 1.0846,0.978591 1.54944,1.549436 -0.57085,0.163099 -0.9786,0.733944 -1.54944,0.733944 a 14.841972,14.841972 0 0 1 -2.85423,0 6.4423945,6.4423945 0 0 0 -3.66972,-2.120282 2.8542254,2.8542254 0 0 1 -1.14169,-0.570845 z M 100.20648,31.520709 a 3.017324,3.017324 0 0 1 0.1631,1.71253 6.1977466,6.1977466 0 0 0 5.4638,4.40367 c 1.54943,0.19571 3.09887,0.19571 4.6483,0 a 12.558592,12.558592 0 0 0 4.48521,-1.22324 12.069296,12.069296 0 0 0 5.38226,-5.79 c 0.73394,-1.71254 1.54943,-3.26198 2.12028,-4.97451 l 2.28338,-6.523945 c 0.97859,-2.854225 2.12028,-6.116197 3.26197,-8.644225 1.14169,-2.528028 2.44648,-4.811409 3.83282,-7.339437 a 43.384226,43.384226 0 0 1 6.52394,-9.051972 l 1.14169,-0.978591 -2.69112,-1.1416909 -4.24057,-2.2833801 c -0.40774,0 -1.14169,-0.570845 -1.14169,0 a 71.681832,71.681832 0 0 0 -3.66972,6.523944 c -1.71253,3.66971803 -2.85422,7.502535 -4.40366,11.172254 a 12.232395,12.232395 0 0 1 -2.69113,4.240563 9.622817,9.622817 0 0 1 -8.15493,2.528028 13.047888,13.047888 0 0 1 -3.83281,-1.386338 4.5667606,4.5667606 0 0 1 -2.28338,-3.261972 7.2578874,7.2578874 0 0 0 0.40774,11.824648 c 3.56371,2.446479 8.26095,2.446479 11.82465,0 a 28.868451,28.868451 0 0 1 2.44648,-2.120281 11.172254,11.172254 0 0 1 -12.31394,6.034645 h -1.14169 a 10.682958,10.682958 0 0 1 -7.01324,-13.374082 10.601409,10.601409 0 0 0 -4.403658,11.743099 c 0.652395,2.992863 2.552493,5.577973 5.219158,7.094793 a 13.210986,13.210986 0 0 0 9.05196,1.14169 3.2619719,3.2619719 0 0 1 -2.12028,1.95718 8.1549297,8.1549297 0 0 1 -8.15492,-2.28338 z m 114.73985,-6.523945 c 0.57085,0 0.57085,0 2.60958,0.652395 h 0.57084 v -0.733945 a 3.832817,3.832817 0 0 0 -1.38633,-3.098873 24.464789,24.464789 0 0 1 -4.07747,-3.669718 1.9571831,1.9571831 0 0 0 -0.97859,-0.733944 l -1.38634,-0.570845 v 1.712535 c 0,0.407747 0.73395,1.549437 0,1.549437 l -2.12028,1.14169 c -2.93577,-3.50662 -2.93577,-2.528028 -4.07746,-2.528028 0.16309,0.570845 0.73394,0.978591 0.73394,1.549437 a 3.1804226,3.1804226 0 0 1 0,2.691126 3.832817,3.832817 0 0 1 -4.64831,0 l -0.81549,-0.978591 c 0.37512,3.017324 1.28032,5.953099 2.69112,8.644229 h 1.14169 a 7.0947888,7.0947888 0 0 1 2.12028,-0.9786 1.8756338,1.8756338 0 0 1 2.44648,0.9786 l 0.57085,1.71253 h 0.89704 a 1.9571831,1.9571831 0 0 0 0.73394,-0.97859 4.7298592,4.7298592 0 0 0 0,-4.24056 h 0.9786 l 2.28338,1.14169 c 0.97859,0.57084 1.71253,0.57084 1.71253,-0.57085 a 12.558592,12.558592 0 0 0 0,-2.691125 z M 118.63661,12.030426 a 6.3608452,6.3608452 0 0 0 -1.63098,-6.279296 3.6697184,3.6697184 0 0 0 -3.66972,-0.733944 2.3649296,2.3649296 0 0 0 -1.38634,2.28338 c 0,0.570845 -0.24465,0.978592 -0.97859,0.570845 -0.73395,-0.407746 -1.38634,-1.386338 -2.12028,-1.386338 a 3.0988733,3.0988733 0 0 0 2.28338,4.403662 c 0.75841,0.09786 1.52497,0.09786 2.28338,0 a 8.5626762,8.5626762 0 0 1 5.21915,1.141691 z"
     id="path1-3"
     style="fill:#808080;stroke-width:8.15493" /><path
     style="font-style:italic;font-weight:500;font-size:27.4129px;line-height:0;font-family:Ubuntu;-inkscape-font-specification:'Ubuntu, Medium Italic';letter-spacing:-1.72473px;stroke-width:1.14221"
     d="m 189.23707,106.06847 q -0.0822,-1.15135 -0.19189,-2.27527 -0.0822,-1.15135 -0.19189,-2.22045 h -7.70302 q -0.6305,1.0691 -1.261,2.19303 -0.60308,1.09652 -1.23358,2.30269 h -3.70074 q 1.67219,-2.90577 3.1799,-5.48258 1.53512,-2.576817 2.96059,-4.906913 1.45289,-2.330097 2.85094,-4.44089 1.42547,-2.138206 2.85095,-4.166761 h 3.2073 q 0.87722,4.084522 1.50771,8.936606 0.6305,4.824668 1.20617,10.060538 z m -1.58995,-15.378641 q -1.04169,1.617361 -2.33009,3.645916 -1.261,2.001141 -2.68647,4.495715 h 5.9486 q -0.16447,-1.946316 -0.41119,-3.97487 -0.2193,-2.055968 -0.52085,-4.166761 z m 18.99941,14.556251 q -0.90462,0.46602 -2.30268,0.8498 -1.39806,0.38378 -3.3992,0.38378 -1.75443,0 -3.12507,-0.52085 -1.37065,-0.54825 -2.3301,-1.56253 -0.95945,-1.01428 -1.48029,-2.43975 -0.49344,-1.42547 -0.49344,-3.207308 0,-2.302684 0.76757,-4.468303 0.76756,-2.193032 2.22044,-3.892632 1.45288,-1.6996 3.53626,-2.713877 2.08339,-1.041691 4.71502,-1.041691 1.72702,0 2.98801,0.383781 1.28841,0.383781 2.24786,0.932039 l -1.31582,2.768703 q -0.87721,-0.520845 -1.89149,-0.794974 -0.98687,-0.301542 -2.24786,-0.301542 -1.72701,0 -3.09766,0.767561 -1.37064,0.767561 -2.35751,2.028555 -0.95945,1.23358 -1.48029,2.823528 -0.49344,1.589949 -0.49344,3.234723 0,2.549397 1.09652,3.782977 1.12393,1.20617 3.26214,1.20617 1.64477,0 2.79611,-0.35637 1.15134,-0.38378 1.97373,-0.76756 z m 14.11996,0 q -0.90463,0.46602 -2.30268,0.8498 -1.39806,0.38378 -3.3992,0.38378 -1.75443,0 -3.12508,-0.52085 -1.37064,-0.54825 -2.33009,-1.56253 -0.95945,-1.01428 -1.4803,-2.43975 -0.49343,-1.42547 -0.49343,-3.207308 0,-2.302684 0.76756,-4.468303 0.76756,-2.193032 2.22045,-3.892632 1.45288,-1.6996 3.53626,-2.713877 2.08338,-1.041691 4.71502,-1.041691 1.72701,0 2.98801,0.383781 1.2884,0.383781 2.24785,0.932039 l -1.31582,2.768703 q -0.87721,-0.520845 -1.89149,-0.794974 -0.98686,-0.301542 -2.24785,-0.301542 -1.72702,0 -3.09766,0.767561 -1.37065,0.767561 -2.35751,2.028555 -0.95945,1.23358 -1.4803,2.823528 -0.49343,1.589949 -0.49343,3.234723 0,2.549397 1.09652,3.782977 1.12392,1.20617 3.26213,1.20617 1.64477,0 2.79612,-0.35637 1.15134,-0.38378 1.97373,-0.76756 z m 0.57798,0.82239 4.55054,-18.997144 h 11.78755 l -0.68533,2.878354 h -8.36093 l -1.12393,4.769845 h 7.40148 l -0.68532,2.823529 h -7.37407 l -1.37065,5.647056 h 8.99144 l -0.68533,2.87836 z m 23.52256,-19.189034 q 3.42661,0 5.23586,1.343232 1.83667,1.343232 1.83667,3.837806 0,1.973729 -0.76756,3.371787 -0.74015,1.370645 -2.08338,2.247858 -1.31582,0.877212 -3.1799,1.288406 -1.83667,0.38378 -4.05711,0.38378 h -1.4803 l -1.61736,6.716165 h -3.45402 l 4.4683,-18.723015 q 1.31582,-0.274129 2.63164,-0.356368 1.31582,-0.109651 2.46716,-0.109651 z m -0.32896,2.905767 q -0.52084,0 -0.98686,0.02741 -0.46602,0.02741 -0.93204,0.08224 l -1.56253,6.551683 h 1.39805 q 1.15135,0 2.22045,-0.19189 1.0691,-0.191891 1.89149,-0.630497 0.82239,-0.466019 1.31582,-1.233581 0.49343,-0.794974 0.49343,-2.001141 0,-1.398058 -1.04169,-2.001142 -1.01428,-0.603084 -2.79612,-0.603084 z m 23.0017,-2.713877 -0.71274,2.905767 h -5.64705 l -3.86522,16.091377 h -3.45403 l 3.86522,-16.091377 h -5.64706 l 0.68532,-2.905767 z m -3.6162,18.997144 4.55054,-18.997144 h 11.78755 l -0.68533,2.878354 h -8.36093 l -1.12393,4.769845 h 7.40148 l -0.68532,2.823529 h -7.37407 l -1.37064,5.647056 h 8.99143 l -0.68532,2.87836 z m 18.09481,-2.82353 q 0.30154,0.0548 0.68532,0.0822 0.41119,0 1.26099,0 1.97373,0 3.56368,-0.6305 1.58995,-0.6305 2.68646,-1.78184 1.12393,-1.178754 1.72702,-2.796115 0.60308,-1.644774 0.60308,-3.645916 0,-2.165619 -1.23358,-3.426613 -1.23358,-1.260993 -4.0297,-1.260993 -0.71273,0 -1.15134,0.02741 -0.41119,0.02741 -0.90462,0.08224 z m 14.09023,-8.881783 q 0,2.5494 -0.82239,4.742432 -0.82239,2.193031 -2.43975,3.782981 -1.61736,1.58995 -4.05711,2.49457 -2.41233,0.90463 -5.61964,0.90463 -1.15134,0 -2.57681,-0.13707 -1.42548,-0.10965 -2.63164,-0.38378 l 4.41347,-18.394052 q 1.34324,-0.301542 2.71388,-0.383781 1.37065,-0.109651 2.52199,-0.109651 2.08338,0 3.67333,0.548258 1.58994,0.520845 2.65905,1.507709 1.0691,0.959452 1.61736,2.35751 0.54826,1.370645 0.54826,3.070244 z m 19.85148,-7.291831 h 3.45402 l -4.55054,18.997144 h -3.45402 l 2.02855,-8.443177 h -7.78526 l -2.02856,8.443177 h -3.45402 l 4.55054,-18.997144 h 3.45402 l -1.83666,7.620786 h 7.78526 z m 1.56479,18.997144 4.55054,-18.997144 h 11.78755 l -0.68532,2.878354 h -8.36094 l -1.12393,4.769845 h 7.40149 l -0.68533,2.823529 h -7.37407 l -1.37064,5.647056 h 8.99143 l -0.68532,2.87836 z m 23.5774,-19.189034 q 3.3992,0 5.15363,1.42547 1.78184,1.398058 1.78184,3.728155 0,1.04169 -0.30155,2.001142 -0.27412,0.932038 -0.90462,1.754425 -0.60309,0.794974 -1.58995,1.425471 -0.95945,0.630497 -2.3301,1.04169 0.35637,0.630497 0.76757,1.535123 0.41119,0.877208 0.84979,1.918898 0.43861,1.01428 0.8498,2.13821 0.4112,1.12393 0.74015,2.22045 h -3.64591 q -0.32896,-0.98687 -0.68533,-2.00115 -0.35636,-1.01427 -0.74014,-1.94631 -0.38378,-0.95945 -0.79498,-1.78184 -0.38378,-0.8498 -0.76756,-1.50771 -0.24671,0.02741 -0.60308,0.02741 -0.35637,0 -0.6305,0 h -1.58995 l -1.72701,7.209597 h -3.45403 l 4.46831,-18.723015 q 1.31582,-0.274129 2.65905,-0.356368 1.37064,-0.109651 2.49457,-0.109651 z m 3.42661,5.537406 q 0,-1.50771 -1.09651,-2.055968 -1.09652,-0.575671 -2.93318,-0.575671 -0.38378,0 -0.82239,0.02741 -0.4386,0.02741 -0.87721,0.08224 l -1.4803,6.195315 h 1.53512 q 1.23358,0 2.27528,-0.19189 1.04169,-0.219303 1.78183,-0.65791 0.76757,-0.438606 1.17876,-1.123929 0.4386,-0.712735 0.4386,-1.699599 z m 2.3324,13.651628 4.55054,-18.997144 h 11.78755 l -0.68532,2.878354 h -8.36094 l -1.12393,4.769845 h 7.40149 l -0.68533,2.823529 h -7.37407 l -1.37064,5.647056 h 8.99143 l -0.68532,2.87836 z"
     id="text4"
     aria-label="ACCEPTED HERE" /><path
     style="font-weight:bold;font-size:81.0017px;font-family:Ubuntu;-inkscape-font-specification:'Ubuntu, Bold';letter-spacing:-3.99947px;stroke-width:1.68754"
     d="m 108.80486,81.403057 q -4.6171,0 -9.234198,-0.324007 -4.536095,-0.243005 -9.477199,-1.296027 V 25.34988 q 3.888082,-0.729016 8.505179,-1.053022 4.617098,-0.405009 8.586178,-0.405009 5.34611,0 9.80121,0.810017 4.53609,0.729015 7.77616,2.592055 3.24007,1.863039 5.02211,4.941103 1.86304,2.997063 1.86304,7.452157 0,6.723141 -6.48014,10.611223 5.34611,2.025042 7.29015,5.508115 1.94404,3.483074 1.94404,7.857165 0,8.829186 -6.48013,13.284279 -6.39914,4.455094 -19.1164,4.455094 z m -6.39914,-25.191529 v 14.499304 q 1.37703,0.162004 2.99706,0.243006 1.62004,0.081 3.56408,0.081 5.67012,0 9.15319,-1.620034 3.48307,-1.620034 3.48307,-5.994126 0,-3.888081 -2.91606,-5.508115 -2.91606,-1.701036 -8.34317,-1.701036 z m 0,-9.639203 h 6.15613 q 5.83212,0 8.34318,-1.45803 2.51105,-1.539032 2.51105,-4.860102 0,-3.402072 -2.59206,-4.779101 -2.59205,-1.377029 -7.61416,-1.377029 -1.62003,0 -3.48307,0.081 -1.86304,0 -3.32107,0.162004 z m 49.38073,34.101717 H 139.71719 V 38.067147 h 12.06926 z m 1.13402,-54.919154 q 0,3.32107 -2.18705,5.265111 -2.10604,1.863039 -5.0221,1.863039 -2.91606,0 -5.10311,-1.863039 -2.10604,-1.944041 -2.10604,-5.265111 0,-3.32107 2.10604,-5.184109 2.18705,-1.94404 5.10311,-1.94404 2.91606,0 5.0221,1.94404 2.18705,1.863039 2.18705,5.184109 z m 5.8017,1.701036 12.06926,-1.944041 v 12.555264 h 14.4993 v 10.044211 h -14.4993 v 14.985315 q 0,3.80708 1.29602,6.075127 1.37703,2.268048 5.42712,2.268048 1.94404,0 3.96908,-0.324007 2.10604,-0.405009 3.80708,-1.053022 l 1.70104,9.396197 q -2.18705,0.891019 -4.86011,1.539033 -2.67305,0.648013 -6.56113,0.648013 -4.94111,0 -8.18118,-1.296027 -3.24006,-1.377029 -5.1841,-3.726078 -1.94405,-2.430051 -2.75406,-5.832123 -0.72902,-3.402071 -0.72902,-7.533158 z m 28.7252,31.91467 q 0,-4.617097 1.45803,-8.667182 1.53903,-4.131087 4.37409,-7.128149 2.83506,-3.078065 6.88515,-4.860103 4.05008,-1.782037 9.23419,-1.782037 3.40207,0 6.23713,0.648014 2.83506,0.567012 5.50812,1.701035 l -2.51106,9.639203 q -1.70103,-0.648014 -3.72607,-1.134024 -2.02505,-0.48601 -4.5361,-0.48601 -5.34611,0 -8.01917,3.32107 -2.59205,3.321069 -2.59205,8.748183 0,5.751121 2.43005,8.910187 2.51105,3.159067 8.66718,3.159067 2.18705,0 4.6981,-0.405009 2.51105,-0.405008 4.6171,-1.296027 l 1.70103,9.882208 q -2.10604,0.891018 -5.26511,1.539032 -3.15907,0.648014 -6.96615,0.648014 -5.83212,0 -10.04421,-1.701036 -4.21208,-1.782038 -6.96614,-4.779101 -2.67306,-2.997062 -3.96909,-7.047148 -1.21502,-4.131086 -1.21502,-8.910187 z m 76.35424,-0.081 q 0,5.022105 -1.45803,9.234194 -1.45803,4.131086 -4.21209,7.128149 -2.75405,2.916062 -6.64214,4.536096 -3.80708,1.620034 -8.58618,1.620034 -4.6981,0 -8.58618,-1.620034 -3.80708,-1.620034 -6.56113,-4.536096 -2.75406,-2.997063 -4.2931,-7.128149 -1.53903,-4.212089 -1.53903,-9.234194 0,-5.022106 1.53903,-9.153193 1.62004,-4.131086 4.3741,-7.047148 2.83506,-2.916061 6.64214,-4.536095 3.88808,-1.620034 8.42417,-1.620034 4.6171,0 8.42418,1.620034 3.88808,1.620034 6.64214,4.536095 2.75406,2.916062 4.29309,7.047148 1.53903,4.131087 1.53903,9.153193 z m -12.31226,0 q 0,-5.589118 -2.26804,-8.748184 -2.18705,-3.240068 -6.31814,-3.240068 -4.13108,0 -6.39913,3.240068 -2.26805,3.159066 -2.26805,8.748184 0,5.589117 2.26805,8.910187 2.26805,3.240068 6.39913,3.240068 4.13109,0 6.31814,-3.240068 2.26804,-3.32107 2.26804,-8.910187 z m 29.69727,21.384449 H 269.11737 V 38.067147 h 12.06925 z m 1.13403,-54.919154 q 0,3.32107 -2.18705,5.265111 -2.10604,1.863039 -5.0221,1.863039 -2.91607,0 -5.10311,-1.863039 -2.10605,-1.944041 -2.10605,-5.265111 0,-3.32107 2.10605,-5.184109 2.18704,-1.94404 5.10311,-1.94404 2.91606,0 5.0221,1.94404 2.18705,1.863039 2.18705,5.184109 z m 6.20671,13.770289 q 3.07806,-0.891018 7.93816,-1.620034 4.86011,-0.810017 10.20622,-0.810017 5.42711,0 8.99119,1.458031 3.64507,1.377029 5.75112,3.969083 2.10604,2.592055 2.99706,6.15613 0.89102,3.564075 0.89102,7.938166 V 80.674042 H 313.23288 V 58.074567 q 0,-5.832122 -1.53904,-8.262173 -1.53903,-2.430052 -5.75112,-2.430052 -1.29602,0 -2.75405,0.162004 -1.45803,0.081 -2.59206,0.243005 v 32.886691 h -12.06925 z"
     id="text3"
     aria-label="Bitcoin" /><path
     d="m 336.63497,58.584987 q 1.17955,0 1.93018,-0.178721 0.78637,-0.214465 1.25105,-0.536163 0.46467,-0.357442 0.6434,-0.822117 0.17872,-0.464675 0.17872,-1.036582 0,-1.215303 -1.14382,-2.001675 -1.14381,-0.822117 -3.93186,-1.751466 -1.2153,-0.42893 -2.43061,-0.965093 -1.2153,-0.571908 -2.18039,-1.394024 -0.9651,-0.857861 -1.57275,-2.03742 -0.60765,-1.215303 -0.60765,-2.931024 0,-1.715722 0.6434,-3.074002 0.64339,-1.394023 1.82295,-2.359117 1.17956,-0.965093 2.85954,-1.465512 1.67997,-0.536163 3.78888,-0.536163 2.5021,0 4.32505,0.536163 1.82296,0.536163 3.00251,1.179558 l -1.60849,4.396537 q -1.03658,-0.536163 -2.32337,-0.929349 -1.25105,-0.42893 -3.03826,-0.42893 -2.00167,0 -2.89528,0.571907 -0.85786,0.536163 -0.85786,1.679977 0,0.67914 0.3217,1.143815 0.3217,0.464674 0.89361,0.857861 0.60765,0.357442 1.35828,0.679139 0.78637,0.285954 1.71572,0.607652 1.93018,0.714884 3.35995,1.429768 1.42977,0.67914 2.35912,1.608489 0.96509,0.929349 1.42977,2.180396 0.46467,1.251047 0.46467,3.038257 0,3.467188 -2.4306,5.397375 -2.43061,1.894443 -7.32756,1.894443 -1.64424,0 -2.96677,-0.214466 -1.32254,-0.178721 -2.35912,-0.464674 -1.00084,-0.285954 -1.75147,-0.607652 -0.71488,-0.321697 -1.2153,-0.607651 l 1.57275,-4.432281 q 1.10807,0.607651 2.71656,1.10807 1.64423,0.464675 4.00335,0.464675 z m 21.05335,4.25356 q -1.46551,-3.109746 -2.89528,-6.469701 -1.42977,-3.359955 -2.71656,-6.648421 -1.28679,-3.288467 -2.39486,-6.29098 -1.07233,-3.002513 -1.8587,-5.36163 h 6.148 q 0.71489,2.144652 1.537,4.646746 0.85786,2.46635 1.71572,4.9327 0.89361,2.46635 1.71573,4.718235 0.82211,2.251884 1.537,3.896118 0.67914,-1.644234 1.50125,-3.896118 0.85786,-2.251885 1.71572,-4.718235 0.89361,-2.46635 1.71573,-4.9327 0.85786,-2.502094 1.57274,-4.646746 h 5.93354 q -0.82212,2.359117 -1.89444,5.36163 -1.07233,3.002513 -2.35912,6.29098 -1.28679,3.288466 -2.71656,6.648421 -1.42977,3.359955 -2.89528,6.469701 z"
     id="text3-0"
     style="font-weight:bold;font-size:35.7442px;font-family:Ubuntu;-inkscape-font-specification:'Ubuntu, Bold';stroke-width:0.992898;fill:#eab300;fill-opacity:1"
     aria-label="SV" /><text
     xml:space="preserve"
     style="font-style:italic;font-variant:normal;font-weight:normal;font-stretch:normal;font-size:24px;line-height:0;font-family:'Ubuntu Mono';-inkscape-font-specification:'Ubuntu Mono, Italic';font-variant-ligatures:normal;font-variant-caps:normal;font-variant-numeric:normal;font-variant-east-asian:normal;text-align:start;letter-spacing:-2.37px;writing-mode:lr-tb;direction:ltr;text-anchor:start;opacity:1;fill:#dedede;fill-opacity:1;stroke:#a3a3a3;stroke-width:1.5;stroke-dasharray:none;stroke-opacity:1"
     x="-82.028168"
     y="-56.788731"
     id="text7"><tspan
       sodipodi:role="line"
       id="tspan7" /></text><g
     id="g9"
     transform="matrix(0.02343636,0,0,0.02343636,24.788439,23.506737)"><path
       d="m 2499.6,1250 c 0,690.2 -559.6,1249.8 -1250.1,1249.9 C 559.5,2499.9 -0.1,1940.2 0,1249.9 -0.2,559.6 559.4,0 1249.7,0 1940,0 2499.6,559.7 2499.6,1250 Z"
       fill="#eab300"
       id="path1" /><g
       fill="#ffffff"
       id="g3"><path
         d="M 1741.5,943.8 C 1725.4,776.4 1580.9,720.3 1398.3,704.3 V 472 H 1257 v 226.1 c -37.1,0 -75.1,0.7 -112.8,1.5 V 472 h -141.3 l -0.1,232.1 c -30.6,0.6 -60.7,1.2 -90,1.2 v -0.7 l -194.9,-0.1 v 151 c 0,0 104.4,-2 102.6,-0.1 57.3,0 75.9,33.2 81.3,61.9 v 264.6 c 4,0 9.1,0.2 14.9,1 h -14.9 l -0.1,370.7 c -2.5,18 -13.1,46.7 -53.1,46.8 1.8,1.6 -102.7,0 -102.7,0 l -28.1,168.8 h 184 c 34.2,0 67.9,0.6 100.9,0.8 l 0.1,234.9 H 1144 v -232.4 c 38.7,0.8 76.2,1.1 112.9,1.1 l -0.1,231.3 h 141.3 v -234.4 c 237.6,-13.6 404.1,-73.5 424.7,-296.7 16.7,-179.7 -67.8,-260 -202.7,-292.4 82.1,-41.6 133.4,-115.1 121.4,-237.6 z M 1543.7,1446 c 0,175.5 -300.5,155.6 -396.4,155.6 v -311.3 c 95.9,0.2 396.4,-27.3 396.4,155.7 z m -65.8,-439.1 c 0,159.7 -250.8,141 -330.6,141.1 V 865.8 c 79.9,0 330.7,-25.4 330.6,141.1 z"
         id="path2" /><path
         d="m 902,1175.7 h 21 v 15.5 h -21 z"
         id="path3" /></g></g></svg>
