<?xml version="1.0" encoding="UTF-8" standalone="no"?>
<svg
   width="400"
   height="120"
   viewBox="0 0 400 120"
   version="1.1"
   id="svg4"
   sodipodi:docname="BSV-AH-1.svg"
   xml:space="preserve"
   inkscape:version="1.4 (e7c3feb100, 2024-10-09)"
   xmlns:inkscape="http://www.inkscape.org/namespaces/inkscape"
   xmlns:sodipodi="http://sodipodi.sourceforge.net/DTD/sodipodi-0.dtd"
   xmlns="http://www.w3.org/2000/svg"
   xmlns:svg="http://www.w3.org/2000/svg"><sodipodi:namedview
     id="namedview4"
     pagecolor="#ffffff"
     bordercolor="#000000"
     borderopacity="0.25"
     inkscape:showpageshadow="2"
     inkscape:pageopacity="0.0"
     inkscape:pagecheckerboard="true"
     inkscape:deskcolor="#d1d1d1"
     inkscape:zoom="2.21875"
     inkscape:cx="132.05634"
     inkscape:cy="68.732394"
     inkscape:window-width="1920"
     inkscape:window-height="1056"
     inkscape:window-x="1920"
     inkscape:window-y="0"
     inkscape:window-maximized="1"
     inkscape:current-layer="svg4" /><defs
     id="defs2"><filter
       id="softShadow"
       x="-0.025874999"
       y="-0.086249995"
       width="1.05925"
       height="1.1975"><feGaussianBlur
         in="SourceAlpha"
         stdDeviation="3.9999997"
         id="feGaussianBlur1" /><feOffset
         dx="3"
         dy="3"
         result="offsetblur"
         id="feOffset1" /><feComponentTransfer
         result="shadowAlpha"
         id="feComponentTransfer1"><feFuncA
           type="linear"
           slope="0.35"
           id="feFuncA1" /></feComponentTransfer><feMerge
         id="feMerge2"><feMergeNode
           in="shadowAlpha"
           id="feMergeNode1" /><feMergeNode
           in="SourceGraphic"
           id="feMergeNode2" /></feMerge></filter></defs><rect
     style="opacity:1;fill:#dedede;stroke:#a3a3a3;stroke-width:1.58703;stroke-dasharray:none;stroke-opacity:1;fill-opacity:1"
     id="rect4"
     width="398.44485"
     height="118.52825"
     x="0.78323138"
     y="0.79924941"
     rx="30.519545" /><path
     style="font-style:italic;font-weight:500;font-size:27.4129px;line-height:0;font-family:Ubuntu;-inkscape-font-specification:'Ubuntu, Medium Italic';letter-spacing:-1.72473px;stroke-width:1.14221"
     d="m 189.23707,106.06847 q -0.0822,-1.15135 -0.19189,-2.27527 -0.0822,-1.15135 -0.19189,-2.22045 h -7.70302 q -0.6305,1.0691 -1.261,2.19303 -0.60308,1.09652 -1.23358,2.30269 h -3.70074 q 1.67219,-2.90577 3.1799,-5.48258 1.53512,-2.576817 2.96059,-4.906913 1.45289,-2.330097 2.85094,-4.44089 1.42547,-2.138206 2.85095,-4.166761 h 3.2073 q 0.87722,4.084522 1.50771,8.936606 0.6305,4.824668 1.20617,10.060538 z m -1.58995,-15.378641 q -1.04169,1.617361 -2.33009,3.645916 -1.261,2.001141 -2.68647,4.495715 h 5.9486 q -0.16447,-1.946316 -0.41119,-3.97487 -0.2193,-2.055968 -0.52085,-4.166761 z m 18.99941,14.556251 q -0.90462,0.46602 -2.30268,0.8498 -1.39806,0.38378 -3.3992,0.38378 -1.75443,0 -3.12507,-0.52085 -1.37065,-0.54825 -2.3301,-1.56253 -0.95945,-1.01428 -1.48029,-2.43975 -0.49344,-1.42547 -0.49344,-3.207308 0,-2.302684 0.76757,-4.468303 0.76756,-2.193032 2.22044,-3.892632 1.45288,-1.6996 3.53626,-2.713877 2.08339,-1.041691 4.71502,-1.041691 1.72702,0 2.98801,0.383781 1.28841,0.383781 2.24786,0.932039 l -1.31582,2.768703 q -0.87721,-0.520845 -1.89149,-0.794974 -0.98687,-0.301542 -2.24786,-0.301542 -1.72701,0 -3.09766,0.767561 -1.37064,0.767561 -2.35751,2.028555 -0.95945,1.23358 -1.48029,2.823528 -0.49344,1.589949 -0.49344,3.234723 0,2.549397 1.09652,3.782977 1.12393,1.20617 3.26214,1.20617 1.64477,0 2.79611,-0.35637 1.15134,-0.38378 1.97373,-0.76756 z m 14.11996,0 q -0.90463,0.46602 -2.30268,0.8498 -1.39806,0.38378 -3.3992,0.38378 -1.75443,0 -3.12508,-0.52085 -1.37064,-0.54825 -2.33009,-1.56253 -0.95945,-1.01428 -1.4803,-2.43975 -0.49343,-1.42547 -0.49343,-3.207308 0,-2.302684 0.76756,-4.468303 0.76756,-2.193032 2.22045,-3.892632 1.45288,-1.6996 3.53626,-2.713877 2.08338,-1.041691 4.71502,-1.041691 1.72701,0 2.98801,0.383781 1.2884,0.383781 2.24785,0.932039 l -1.31582,2.768703 q -0.87721,-0.520845 -1.89149,-0.794974 -0.98686,-0.301542 -2.24785,-0.301542 -1.72702,0 -3.09766,0.767561 -1.37065,0.767561 -2.35751,2.028555 -0.95945,1.23358 -1.4803,2.823528 -0.49343,1.589949 -0.49343,3.234723 0,2.549397 1.09652,3.782977 1.12392,1.20617 3.26213,1.20617 1.64477,0 2.79612,-0.35637 1.15134,-0.38378 1.97373,-0.76756 z m 0.57798,0.82239 4.55054,-18.997144 h 11.78755 l -0.68533,2.878354 h -8.36093 l -1.12393,4.769845 h 7.40148 l -0.68532,2.823529 h -7.37407 l -1.37065,5.647056 h 8.99144 l -0.68533,2.87836 z m 23.52256,-19.189034 q 3.42661,0 5.23586,1.343232 1.83667,1.343232 1.83667,3.837806 0,1.973729 -0.76756,3.371787 -0.74015,1.370645 -2.08338,2.247858 -1.31582,0.877212 -3.1799,1.288406 -1.83667,0.38378 -4.05711,0.38378 h -1.4803 l -1.61736,6.716165 h -3.45402 l 4.4683,-18.723015 q 1.31582,-0.274129 2.63164,-0.356368 1.31582,-0.109651 2.46716,-0.109651 z m -0.32896,2.905767 q -0.52084,0 -0.98686,0.02741 -0.46602,0.02741 -0.93204,0.08224 l -1.56253,6.551683 h 1.39805 q 1.15135,0 2.22045,-0.19189 1.0691,-0.191891 1.89149,-0.630497 0.82239,-0.466019 1.31582,-1.233581 0.49343,-0.794974 0.49343,-2.001141 0,-1.398058 -1.04169,-2.001142 -1.01428,-0.603084 -2.79612,-0.603084 z m 23.0017,-2.713877 -0.71274,2.905767 h -5.64705 l -3.86522,16.091377 h -3.45403 l 3.86522,-16.091377 h -5.64706 l 0.68532,-2.905767 z m -3.6162,18.997144 4.55054,-18.997144 h 11.78755 l -0.68533,2.878354 h -8.36093 l -1.12393,4.769845 h 7.40148 l -0.68532,2.823529 h -7.37407 l -1.37064,5.647056 h 8.99143 l -0.68532,2.87836 z m 18.09481,-2.82353 q 0.30154,0.0548 0.68532,0.0822 0.41119,0 1.26099,0 1.97373,0 3.56368,-0.6305 1.58995,-0.6305 2.68646,-1.78184 1.12393,-1.178754 1.72702,-2.796115 0.60308,-1.644774 0.60308,-3.645916 0,-2.165619 -1.23358,-3.426613 -1.23358,-1.260993 -4.0297,-1.260993 -0.71273,0 -1.15134,0.02741 -0.41119,0.02741 -0.90462,0.08224 z m 14.09023,-8.881783 q 0,2.5494 -0.82239,4.742432 -0.82239,2.193031 -2.43975,3.782981 -1.61736,1.58995 -4.05711,2.49457 -2.41233,0.90463 -5.61964,0.90463 -1.15134,0 -2.57681,-0.13707 -1.42548,-0.10965 -2.63164,-0.38378 l 4.41347,-18.394052 q 1.34324,-0.301542 2.71388,-0.383781 1.37065,-0.109651 2.52199,-0.109651 2.08338,0 3.67333,0.548258 1.58994,0.520845 2.65905,1.507709 1.0691,0.959452 1.61736,2.35751 0.54826,1.370645 0.54826,3.070244 z m 19.85148,-7.291831 h 3.45402 l -4.55054,18.997144 h -3.45402 l 2.02855,-8.443177 h -7.78526 l -2.02856,8.443177 h -3.45402 l 4.55054,-18.997144 h 3.45402 l -1.83666,7.620786 h 7.78526 z m 1.56479,18.997144 4.55054,-18.997144 h 11.78755 l -0.68532,2.878354 h -8.36094 l -1.12393,4.769845 h 7.40149 l -0.68533,2.823529 h -7.37407 l -1.37064,5.647056 h 8.99143 l -0.68532,2.87836 z m 23.5774,-19.189034 q 3.3992,0 5.15363,1.42547 1.78184,1.398058 1.78184,3.728155 0,1.04169 -0.30155,2.001142 -0.27412,0.932038 -0.90462,1.754425 -0.60309,0.794974 -1.58995,1.425471 -0.95945,0.630497 -2.3301,1.04169 0.35637,0.630497 0.76757,1.535123 0.41119,0.877208 0.84979,1.918898 0.43861,1.01428 0.8498,2.13821 0.4112,1.12393 0.74015,2.22045 h -3.64591 q -0.32896,-0.98687 -0.68533,-2.00115 -0.35636,-1.01427 -0.74014,-1.94631 -0.38378,-0.95945 -0.79498,-1.78184 -0.38378,-0.8498 -0.76756,-1.50771 -0.24671,0.02741 -0.60308,0.02741 -0.35637,0 -0.6305,0 h -1.58995 l -1.72701,7.209597 h -3.45403 l 4.46831,-18.723015 q 1.31582,-0.274129 2.65905,-0.356368 1.37064,-0.109651 2.49457,-0.109651 z m 3.42661,5.537406 q 0,-1.50771 -1.09651,-2.055968 -1.09652,-0.575671 -2.93318,-0.575671 -0.38378,0 -0.82239,0.02741 -0.4386,0.02741 -0.87721,0.08224 l -1.4803,6.195315 h 1.53512 q 1.23358,0 2.27528,-0.19189 1.04169,-0.219303 1.78183,-0.65791 0.76757,-0.438606 1.17876,-1.123929 0.4386,-0.712735 0.4386,-1.699599 z m 2.3324,13.651628 4.55054,-18.997144 h 11.78755 l -0.68532,2.878354 h -8.36094 l -1.12393,4.769845 h 7.40149 l -0.68533,2.823529 h -7.37407 l -1.37064,5.647056 h 8.99143 l -0.68532,2.87836 z"
     id="text4"
     aria-label="ACCEPTED HERE" /><path
     style="font-weight:bold;font-size:81.0017px;font-family:Ubuntu;-inkscape-font-specification:'Ubuntu, Bold';letter-spacing:-3.99947px;stroke-width:1.68754"
     d="m 108.80486,81.403057 q -4.6171,0 -9.234198,-0.324007 -4.536095,-0.243005 -9.477199,-1.296027 V 25.34988 q 3.888082,-0.729016 8.505179,-1.053022 4.617098,-0.405009 8.586178,-0.405009 5.34611,0 9.80121,0.810017 4.53609,0.729015 7.77616,2.592055 3.24007,1.863039 5.02211,4.941103 1.86304,2.997063 1.86304,7.452157 0,6.723141 -6.48014,10.611223 5.34611,2.025042 7.29015,5.508115 1.94404,3.483074 1.94404,7.857165 0,8.829186 -6.48013,13.284279 -6.39914,4.455094 -19.1164,4.455094 z m -6.39914,-25.191529 v 14.499304 q 1.37703,0.162004 2.99706,0.243006 1.62004,0.081 3.56408,0.081 5.67012,0 9.15319,-1.620034 3.48307,-1.620034 3.48307,-5.994126 0,-3.888081 -2.91606,-5.508115 -2.91606,-1.701036 -8.34317,-1.701036 z m 0,-9.639203 h 6.15613 q 5.83212,0 8.34318,-1.45803 2.51105,-1.539032 2.51105,-4.860102 0,-3.402072 -2.59206,-4.779101 -2.59205,-1.377029 -7.61416,-1.377029 -1.62003,0 -3.48307,0.081 -1.86304,0 -3.32107,0.162004 z m 49.38073,34.101717 H 139.71719 V 38.067147 h 12.06926 z m 1.13402,-54.919154 q 0,3.32107 -2.18705,5.265111 -2.10604,1.863039 -5.0221,1.863039 -2.91606,0 -5.10311,-1.863039 -2.10604,-1.944041 -2.10604,-5.265111 0,-3.32107 2.10604,-5.184109 2.18705,-1.94404 5.10311,-1.94404 2.91606,0 5.0221,1.94404 2.18705,1.863039 2.18705,5.184109 z m 5.8017,1.701036 12.06926,-1.944041 v 12.555264 h 14.4993 v 10.044211 h -14.4993 v 14.985315 q 0,3.80708 1.29602,6.075127 1.37703,2.268048 5.42712,2.268048 1.94404,0 3.96908,-0.324007 2.10604,-0.405009 3.80708,-1.053022 l 1.70104,9.396197 q -2.18705,0.891019 -4.86011,1.539033 -2.67305,0.648013 -6.56113,0.648013 -4.94111,0 -8.18118,-1.296027 -3.24006,-1.377029 -5.1841,-3.726078 -1.94405,-2.430051 -2.75406,-5.832123 -0.72902,-3.402071 -0.72902,-7.533158 z m 28.7252,31.91467 q 0,-4.617097 1.45803,-8.667182 1.53903,-4.131087 4.37409,-7.128149 2.83506,-3.078065 6.88515,-4.860103 4.05008,-1.782037 9.23419,-1.782037 3.40207,0 6.23713,0.648014 2.83506,0.567012 5.50812,1.701035 l -2.51106,9.639203 q -1.70103,-0.648014 -3.72607,-1.134024 -2.02505,-0.48601 -4.5361,-0.48601 -5.34611,0 -8.01917,3.32107 -2.59205,3.321069 -2.59205,8.748183 0,5.751121 2.43005,8.910187 2.51105,3.159067 8.66718,3.159067 2.18705,0 4.6981,-0.405009 2.51105,-0.405008 4.6171,-1.296027 l 1.70103,9.882208 q -2.10604,0.891018 -5.26511,1.539032 -3.15907,0.648014 -6.96615,0.648014 -5.83212,0 -10.04421,-1.701036 -4.21208,-1.782038 -6.96614,-4.779101 -2.67306,-2.997062 -3.96909,-7.047148 -1.21502,-4.131086 -1.21502,-8.910187 z m 76.35424,-0.081 q 0,5.022105 -1.45803,9.234194 -1.45803,4.131086 -4.21209,7.128149 -2.75405,2.916062 -6.64214,4.536096 -3.80708,1.620034 -8.58618,1.620034 -4.6981,0 -8.58618,-1.620034 -3.80708,-1.620034 -6.56113,-4.536096 -2.75406,-2.997063 -4.2931,-7.128149 -1.53903,-4.212089 -1.53903,-9.234194 0,-5.022106 1.53903,-9.153193 1.62004,-4.131086 4.3741,-7.047148 2.83506,-2.916061 6.64214,-4.536095 3.88808,-1.620034 8.42417,-1.620034 4.6171,0 8.42418,1.620034 3.88808,1.620034 6.64214,4.536095 2.75406,2.916062 4.29309,7.047148 1.53903,4.131087 1.53903,9.153193 z m -12.31226,0 q 0,-5.589118 -2.26804,-8.748184 -2.18705,-3.240068 -6.31814,-3.240068 -4.13108,0 -6.39913,3.240068 -2.26805,3.159066 -2.26805,8.748184 0,5.589117 2.26805,8.910187 2.26805,3.240068 6.39913,3.240068 4.13109,0 6.31814,-3.240068 2.26804,-3.32107 2.26804,-8.910187 z m 29.69727,21.384449 H 269.11737 V 38.067147 h 12.06925 z m 1.13403,-54.919154 q 0,3.32107 -2.18705,5.265111 -2.10604,1.863039 -5.0221,1.863039 -2.91607,0 -5.10311,-1.863039 -2.10605,-1.944041 -2.10605,-5.265111 0,-3.32107 2.10605,-5.184109 2.18704,-1.94404 5.10311,-1.94404 2.91606,0 5.0221,1.94404 2.18705,1.863039 2.18705,5.184109 z m 6.20671,13.770289 q 3.07806,-0.891018 7.93816,-1.620034 4.86011,-0.810017 10.20622,-0.810017 5.42711,0 8.99119,1.458031 3.64507,1.377029 5.75112,3.969083 2.10604,2.592055 2.99706,6.15613 0.89102,3.564075 0.89102,7.938166 V 80.674042 H 313.23288 V 58.074567 q 0,-5.832122 -1.53904,-8.262173 -1.53903,-2.430052 -5.75112,-2.430052 -1.29602,0 -2.75405,0.162004 -1.45803,0.081 -2.59206,0.243005 v 32.886691 h -12.06925 z"
     id="text3"
     aria-label="Bitcoin" /><path
     d="m 336.63497,58.584987 q 1.17955,0 1.93018,-0.178721 0.78637,-0.214465 1.25105,-0.536163 0.46467,-0.357442 0.6434,-0.822117 0.17872,-0.464675 0.17872,-1.036582 0,-1.215303 -1.14382,-2.001675 -1.14381,-0.822117 -3.93186,-1.751466 -1.2153,-0.42893 -2.43061,-0.965093 -1.2153,-0.571908 -2.18039,-1.394024 -0.9651,-0.857861 -1.57275,-2.03742 -0.60765,-1.215303 -0.60765,-2.931024 0,-1.715722 0.6434,-3.074002 0.64339,-1.394023 1.82295,-2.359117 1.17956,-0.965093 2.85954,-1.465512 1.67997,-0.536163 3.78888,-0.536163 2.5021,0 4.32505,0.536163 1.82296,0.536163 3.00251,1.179558 l -1.60849,4.396537 q -1.03658,-0.536163 -2.32337,-0.929349 -1.25105,-0.42893 -3.03826,-0.42893 -2.00167,0 -2.89528,0.571907 -0.85786,0.536163 -0.85786,1.679977 0,0.67914 0.3217,1.143815 0.3217,0.464674 0.89361,0.857861 0.60765,0.357442 1.35828,0.679139 0.78637,0.285954 1.71572,0.607652 1.93018,0.714884 3.35995,1.429768 1.42977,0.67914 2.35912,1.608489 0.96509,0.929349 1.42977,2.180396 0.46467,1.251047 0.46467,3.038257 0,3.467188 -2.4306,5.397375 -2.43061,1.894443 -7.32756,1.894443 -1.64424,0 -2.96677,-0.214466 -1.32254,-0.178721 -2.35912,-0.464674 -1.00084,-0.285954 -1.75147,-0.607652 -0.71488,-0.321697 -1.2153,-0.607651 l 1.57275,-4.432281 q 1.10807,0.607651 2.71656,1.10807 1.64423,0.464675 4.00335,0.464675 z m 21.05335,4.25356 q -1.46551,-3.109746 -2.89528,-6.469701 -1.42977,-3.359955 -2.71656,-6.648421 -1.28679,-3.288467 -2.39486,-6.29098 -1.07233,-3.002513 -1.8587,-5.36163 h 6.148 q 0.71489,2.144652 1.537,4.646746 0.85786,2.46635 1.71572,4.9327 0.89361,2.46635 1.71573,4.718235 0.82211,2.251884 1.537,3.896118 0.67914,-1.644234 1.50125,-3.896118 0.85786,-2.251885 1.71572,-4.718235 0.89361,-2.46635 1.71573,-4.9327 0.85786,-2.502094 1.57274,-4.646746 h 5.93354 q -0.82212,2.359117 -1.89444,5.36163 -1.07233,3.002513 -2.35912,6.29098 -1.28679,3.288466 -2.71656,6.648421 -1.42977,3.359955 -2.89528,6.469701 z"
     id="text3-0"
     style="font-weight:bold;font-size:35.7442px;font-family:Ubuntu;-inkscape-font-specification:'Ubuntu, Bold';stroke-width:0.992898;fill:#eab300;fill-opacity:1"
     aria-label="SV" /><text
     xml:space="preserve"
     style="font-style:italic;font-variant:normal;font-weight:normal;font-stretch:normal;font-size:24px;line-height:0;font-family:'Ubuntu Mono';-inkscape-font-specification:'Ubuntu Mono, Italic';font-variant-ligatures:normal;font-variant-caps:normal;font-variant-numeric:normal;font-variant-east-asian:normal;text-align:start;letter-spacing:-2.37px;writing-mode:lr-tb;direction:ltr;text-anchor:start;opacity:1;fill:#dedede;fill-opacity:1;stroke:#a3a3a3;stroke-width:1.5;stroke-dasharray:none;stroke-opacity:1"
     x="-82.028168"
     y="-56.788731"
     id="text7"><tspan
       sodipodi:role="line"
       id="tspan7"></tspan></text><g
     id="g9"
     transform="matrix(0.02343636,0,0,0.02343636,24.788439,23.506737)"><path
       d="m 2499.6,1250 c 0,690.2 -559.6,1249.8 -1250.1,1249.9 C 559.5,2499.9 -0.1,1940.2 0,1249.9 -0.2,559.6 559.4,0 1249.7,0 1940,0 2499.6,559.7 2499.6,1250 Z"
       fill="#eab300"
       id="path1" /><g
       fill="#ffffff"
       id="g3"><path
         d="M 1741.5,943.8 C 1725.4,776.4 1580.9,720.3 1398.3,704.3 V 472 H 1257 v 226.1 c -37.1,0 -75.1,0.7 -112.8,1.5 V 472 h -141.3 l -0.1,232.1 c -30.6,0.6 -60.7,1.2 -90,1.2 v -0.7 l -194.9,-0.1 v 151 c 0,0 104.4,-2 102.6,-0.1 57.3,0 75.9,33.2 81.3,61.9 v 264.6 c 4,0 9.1,0.2 14.9,1 h -14.9 l -0.1,370.7 c -2.5,18 -13.1,46.7 -53.1,46.8 1.8,1.6 -102.7,0 -102.7,0 l -28.1,168.8 h 184 c 34.2,0 67.9,0.6 100.9,0.8 l 0.1,234.9 H 1144 v -232.4 c 38.7,0.8 76.2,1.1 112.9,1.1 l -0.1,231.3 h 141.3 v -234.4 c 237.6,-13.6 404.1,-73.5 424.7,-296.7 16.7,-179.7 -67.8,-260 -202.7,-292.4 82.1,-41.6 133.4,-115.1 121.4,-237.6 z M 1543.7,1446 c 0,175.5 -300.5,155.6 -396.4,155.6 v -311.3 c 95.9,0.2 396.4,-27.3 396.4,155.7 z m -65.8,-439.1 c 0,159.7 -250.8,141 -330.6,141.1 V 865.8 c 79.9,0 330.7,-25.4 330.6,141.1 z"
         id="path2" /><path
         d="m 902,1175.7 h 21 v 15.5 h -21 z"
         id="path3" /></g></g></svg>
