<?xml version="1.0" encoding="UTF-8" standalone="no"?>
<svg
   width="400"
   height="120"
   viewBox="0 0 400 120"
   version="1.1"
   id="svg4"
   sodipodi:docname="BSV-3.svg"
   xml:space="preserve"
   inkscape:version="1.4 (e7c3feb100, 2024-10-09)"
   xmlns:inkscape="http://www.inkscape.org/namespaces/inkscape"
   xmlns:sodipodi="http://sodipodi.sourceforge.net/DTD/sodipodi-0.dtd"
   xmlns="http://www.w3.org/2000/svg"
   xmlns:svg="http://www.w3.org/2000/svg"><sodipodi:namedview
     id="namedview4"
     pagecolor="#ffffff"
     bordercolor="#000000"
     borderopacity="0.25"
     inkscape:showpageshadow="2"
     inkscape:pageopacity="0.0"
     inkscape:pagecheckerboard="true"
     inkscape:deskcolor="#d1d1d1"
     inkscape:zoom="3.1377863"
     inkscape:cx="209.06459"
     inkscape:cy="94.812064"
     inkscape:window-width="1920"
     inkscape:window-height="1056"
     inkscape:window-x="1920"
     inkscape:window-y="0"
     inkscape:window-maximized="1"
     inkscape:current-layer="svg4" /><defs
     id="defs2"><filter
       id="softShadow"
       x="-0.025874999"
       y="-0.086249995"
       width="1.05925"
       height="1.1975"><feGaussianBlur
         in="SourceAlpha"
         stdDeviation="3.9999997"
         id="feGaussianBlur1" /><feOffset
         dx="3"
         dy="3"
         result="offsetblur"
         id="feOffset1" /><feComponentTransfer
         result="shadowAlpha"
         id="feComponentTransfer1"><feFuncA
           type="linear"
           slope="0.35"
           id="feFuncA1" /></feComponentTransfer><feMerge
         id="feMerge2"><feMergeNode
           in="shadowAlpha"
           id="feMergeNode1" /><feMergeNode
           in="SourceGraphic"
           id="feMergeNode2" /></feMerge></filter></defs><path
     style="font-weight:bold;font-size:81.0017px;font-family:Ubuntu;-inkscape-font-specification:'Ubuntu, Bold';letter-spacing:-3.99947px;stroke-width:1.88854"
     d="m 99.431628,93.387277 q -5.167035,0 -10.334068,-0.362599 -5.076381,-0.271949 -10.606011,-1.450395 V 30.657704 q 4.351184,-0.815848 9.518216,-1.178446 5.167032,-0.453249 9.608863,-0.453249 5.982872,0 10.968612,0.906497 5.07638,0.815846 8.70237,2.90079 3.62599,2.084942 5.62029,5.529629 2.08494,3.354038 2.08494,8.33977 0,7.523923 -7.25198,11.875108 5.98288,2.266241 8.15847,6.164177 2.17559,3.897937 2.17559,8.793018 0,9.880815 -7.25197,14.866546 -7.16133,4.985733 -21.393322,4.985733 z M 92.270297,65.195229 v 16.22629 q 1.541046,0.1813 3.354035,0.27195 1.813,0.09065 3.988591,0.09065 6.345477,0 10.243407,-1.812993 3.89794,-1.812994 3.89794,-6.708076 0,-4.351184 -3.26339,-6.164177 -3.26339,-1.903644 -9.33691,-1.903644 z m 0,-10.787312 h 6.889376 q 6.526777,0 9.336927,-1.631693 2.81013,-1.722344 2.81013,-5.438981 0,-3.807287 -2.90079,-5.348331 -2.90079,-1.541045 -8.521074,-1.541045 -1.812988,0 -3.897932,0.09065 -2.084943,0 -3.716637,0.1813 z M 147.53268,92.57143 H 134.02587 V 44.889702 h 13.50681 z m 1.26909,-61.460479 q 0,3.716637 -2.44754,5.89223 -2.35689,2.084942 -5.62028,2.084942 -3.26338,0 -5.71093,-2.084942 -2.35688,-2.175593 -2.35688,-5.89223 0,-3.716636 2.35688,-5.801579 2.44755,-2.175591 5.71093,-2.175591 3.26339,0 5.62028,2.175591 2.44754,2.084943 2.44754,5.801579 z m 6.49273,1.903644 13.50681,-2.175593 v 14.0507 h 16.22629 v 11.240559 h -16.22629 v 16.77019 q 0,4.260535 1.45039,6.798725 1.54105,2.538191 6.07353,2.538191 2.1756,0 4.44183,-0.362599 2.35689,-0.453249 4.26054,-1.178445 l 1.90365,10.515361 q -2.44755,0.997147 -5.43899,1.722345 -2.99143,0.725197 -7.34262,0.725197 -5.52963,0 -9.15562,-1.450395 -3.62598,-1.541044 -5.80157,-4.169885 -2.1756,-2.71949 -3.08209,-6.526777 -0.81586,-3.807285 -0.81586,-8.430419 z m 32.14661,35.71597 q 0,-5.167031 1.6317,-9.699514 1.72234,-4.623134 4.89508,-7.977171 3.17274,-3.444688 7.70522,-5.438981 4.53248,-1.994293 10.33406,-1.994293 3.80729,0 6.98003,0.725198 3.17274,0.634548 6.16418,1.903643 l -2.81015,10.787311 q -1.90364,-0.725198 -4.16987,-1.269095 -2.26625,-0.543898 -5.07639,-0.543898 -5.98288,0 -8.97432,3.716637 -2.90079,3.716635 -2.90079,9.790163 0,6.436127 2.71949,9.971464 2.81014,3.535338 9.69952,3.535338 2.44754,0 5.25768,-0.453249 2.81014,-0.453248 5.16703,-1.450394 l 1.90364,11.05926 q -2.35689,0.997146 -5.89223,1.722344 -3.53534,0.725198 -7.79587,0.725198 -6.52678,0 -11.24056,-1.903644 -4.71378,-1.994293 -7.79587,-5.348331 -2.99144,-3.354037 -4.44184,-7.886522 -1.35974,-4.623132 -1.35974,-9.971464 z m 85.44866,-0.09065 q 0,5.620279 -1.63169,10.334062 -1.63169,4.623133 -4.71379,7.977171 -3.08208,3.263389 -7.43327,5.076382 -4.26053,1.812994 -9.60886,1.812994 -5.25769,0 -9.60887,-1.812994 -4.26053,-1.812993 -7.34261,-5.076382 -3.08209,-3.354038 -4.80445,-7.977171 -1.72234,-4.713783 -1.72234,-10.334062 0,-5.620281 1.72234,-10.243414 1.813,-4.623133 4.89509,-7.886522 3.17274,-3.263388 7.43328,-5.076381 4.35118,-1.812993 9.42756,-1.812993 5.16703,0 9.42757,1.812993 4.35118,1.812993 7.43327,5.076381 3.08209,3.263389 4.80443,7.886522 1.72234,4.623133 1.72234,10.243414 z m -13.77875,0 q 0,-6.254828 -2.53818,-9.790165 -2.44755,-3.625987 -7.07068,-3.625987 -4.62313,0 -7.16132,3.625987 -2.5382,3.535337 -2.5382,9.790165 0,6.254827 2.5382,9.971463 2.53819,3.625987 7.16132,3.625987 4.62313,0 7.07068,-3.625987 2.53818,-3.716636 2.53818,-9.971463 z m 33.23446,23.931513 h -13.5068 V 44.889702 h 13.5068 z m 1.2691,-61.460478 q 0,3.716636 -2.44754,5.892229 -2.35689,2.084942 -5.62028,2.084942 -3.26339,0 -5.71093,-2.084942 -2.3569,-2.175593 -2.3569,-5.892229 0,-3.716637 2.3569,-5.80158 2.44754,-2.175591 5.71093,-2.175591 3.26339,0 5.62028,2.175591 2.44754,2.084943 2.44754,5.80158 z m 6.94598,15.410444 q 3.44469,-0.997146 8.88366,-1.812994 5.43899,-0.906497 11.42187,-0.906497 6.07352,0 10.06211,1.631695 4.07923,1.541044 6.43613,4.441834 2.35689,2.90079 3.35403,6.889375 0.99715,3.988586 0.99715,8.883668 V 92.57143 H 328.20872 V 67.280171 q 0,-6.526776 -1.72236,-9.246266 -1.72234,-2.719491 -6.43612,-2.719491 -1.45039,0 -3.08208,0.1813 -1.6317,0.09065 -2.9008,0.271949 V 92.57143 h -13.5068 z"
     id="text3"
     aria-label="Bitcoin" /><path
     d="m 354.39819,67.851386 q 1.32004,0 2.16008,-0.200008 0.88003,-0.24001 1.40006,-0.600024 0.52001,-0.400017 0.72003,-0.920038 0.20001,-0.520022 0.20001,-1.160048 0,-1.360055 -1.28006,-2.240091 -1.28005,-0.920038 -4.40018,-1.96008 -1.36005,-0.480019 -2.72011,-1.080043 -1.36005,-0.640027 -2.44009,-1.560064 -1.08006,-0.96004 -1.76008,-2.280094 -0.68003,-1.360055 -0.68003,-3.280133 0,-1.920079 0.72004,-3.440141 0.72002,-1.560063 2.04007,-2.640107 1.32006,-1.080044 3.20014,-1.640067 1.88007,-0.600024 4.24017,-0.600024 2.80012,0 4.8402,0.600024 2.04009,0.600025 3.36013,1.320053 l -1.80008,4.920201 q -1.16004,-0.600024 -2.6001,-1.040042 -1.40006,-0.480019 -3.40014,-0.480019 -2.24008,0 -3.24013,0.640026 -0.96004,0.600024 -0.96004,1.880076 0,0.760031 0.36002,1.280053 0.36001,0.52002 1.00004,0.960039 0.68003,0.400016 1.52007,0.76003 0.88003,0.320014 1.92007,0.680028 2.16008,0.800033 3.76015,1.600066 1.60007,0.760031 2.64011,1.800073 1.08004,1.040042 1.60007,2.440099 0.52001,1.400057 0.52001,3.400139 0,3.880158 -2.7201,6.040246 -2.72012,2.120087 -8.20033,2.120087 -1.84009,0 -3.32014,-0.24001 -1.48006,-0.200009 -2.64011,-0.520021 -1.12005,-0.320013 -1.96008,-0.680028 -0.80003,-0.360014 -1.36006,-0.680028 l 1.76008,-4.960202 q 1.24005,0.680027 3.04013,1.240051 1.84007,0.520021 4.48018,0.520021 z m 23.56098,4.760194 q -1.64007,-3.480142 -3.24014,-7.240296 -1.60006,-3.760153 -3.04012,-7.440302 -1.44006,-3.680151 -2.68011,-7.040288 -1.20005,-3.360137 -2.08009,-6.000244 h 6.88028 q 0.80004,2.400097 1.72007,5.200211 0.96004,2.760113 1.92008,5.520226 1.00004,2.760112 1.92009,5.280215 0.92003,2.520102 1.72006,4.360178 0.76004,-1.840076 1.68007,-4.360178 0.96003,-2.520103 1.92007,-5.280215 1.00005,-2.760113 1.92009,-5.520226 0.96004,-2.800114 1.76007,-5.200211 h 6.64027 q -0.92004,2.640107 -2.12008,6.000244 -1.20006,3.360137 -2.64011,7.040288 -1.44006,3.680149 -3.04013,7.440302 -1.60007,3.760154 -3.24013,7.240296 z"
     id="text3-0"
     style="font-weight:bold;font-size:35.7442px;font-family:Ubuntu;-inkscape-font-specification:'Ubuntu, Bold';fill:#eab300;fill-opacity:1;stroke-width:1.11116"
     aria-label="SV" /><text
     xml:space="preserve"
     style="font-style:italic;font-variant:normal;font-weight:normal;font-stretch:normal;font-size:24px;line-height:0;font-family:'Ubuntu Mono';-inkscape-font-specification:'Ubuntu Mono, Italic';font-variant-ligatures:normal;font-variant-caps:normal;font-variant-numeric:normal;font-variant-east-asian:normal;text-align:start;letter-spacing:-2.37px;writing-mode:lr-tb;direction:ltr;text-anchor:start;opacity:1;fill:#dedede;fill-opacity:1;stroke:#a3a3a3;stroke-width:1.5;stroke-dasharray:none;stroke-opacity:1"
     x="-82.028168"
     y="-56.788731"
     id="text7"><tspan
       sodipodi:role="line"
       id="tspan7" /></text><g
     id="g9"
     transform="matrix(0.02622782,0,0,0.02622782,5.408157,28.595027)"
     style="stroke:#006491;stroke-opacity:1;stroke-width:0;stroke-dasharray:none"><path
       d="m 2499.6,1250 c 0,690.2 -559.6,1249.8 -1250.1,1249.9 C 559.5,2499.9 -0.1,1940.2 0,1249.9 -0.2,559.6 559.4,0 1249.7,0 1940,0 2499.6,559.7 2499.6,1250 Z"
       fill="#eab300"
       id="path1"
       style="stroke:#006491;stroke-opacity:1;stroke-width:0;stroke-dasharray:none" /><g
       fill="#ffffff"
       id="g3"
       style="stroke:#006491;stroke-opacity:1;stroke-width:0;stroke-dasharray:none"><path
         d="M 1741.5,943.8 C 1725.4,776.4 1580.9,720.3 1398.3,704.3 V 472 H 1257 v 226.1 c -37.1,0 -75.1,0.7 -112.8,1.5 V 472 h -141.3 l -0.1,232.1 c -30.6,0.6 -60.7,1.2 -90,1.2 v -0.7 l -194.9,-0.1 v 151 c 0,0 104.4,-2 102.6,-0.1 57.3,0 75.9,33.2 81.3,61.9 v 264.6 c 4,0 9.1,0.2 14.9,1 h -14.9 l -0.1,370.7 c -2.5,18 -13.1,46.7 -53.1,46.8 1.8,1.6 -102.7,0 -102.7,0 l -28.1,168.8 h 184 c 34.2,0 67.9,0.6 100.9,0.8 l 0.1,234.9 H 1144 v -232.4 c 38.7,0.8 76.2,1.1 112.9,1.1 l -0.1,231.3 h 141.3 v -234.4 c 237.6,-13.6 404.1,-73.5 424.7,-296.7 16.7,-179.7 -67.8,-260 -202.7,-292.4 82.1,-41.6 133.4,-115.1 121.4,-237.6 z M 1543.7,1446 c 0,175.5 -300.5,155.6 -396.4,155.6 v -311.3 c 95.9,0.2 396.4,-27.3 396.4,155.7 z m -65.8,-439.1 c 0,159.7 -250.8,141 -330.6,141.1 V 865.8 c 79.9,0 330.7,-25.4 330.6,141.1 z"
         id="path2"
         style="stroke:#006491;stroke-opacity:1;stroke-width:0;stroke-dasharray:none" /><path
         d="m 902,1175.7 h 21 v 15.5 h -21 z"
         id="path3"
         style="stroke:#006491;stroke-opacity:1;stroke-width:0;stroke-dasharray:none" /></g></g><path
     style="fill:#0000ff;stroke:#006491;stroke-width:0;stroke-opacity:1;stroke-dasharray:none"
     d="M 31.934963,93.321803 C 25.239309,91.91845 19.500017,88.664068 14.573575,83.477278 8.8303174,77.430508 5.8533289,69.861021 5.8658168,61.336355 5.8739715,55.769698 6.7082048,52.041459 9.0012438,47.323944 19.517483,25.688669 48.510073,22.456197 63.583766,41.238372 c 2.722249,3.391988 4.479756,6.763626 5.882217,11.284554 1.232906,3.974349 1.463585,12.09733 0.460327,16.209468 -0.858411,3.518435 -4.164178,10.138691 -6.581021,13.179408 -3.74999,4.71799 -9.813611,8.707578 -16.246697,10.689595 -4.059233,1.250637 -11.049341,1.582729 -15.163629,0.720406 z m 3.670671,-14.899268 v -2.929577 h 1.352112 1.352113 v 2.929577 2.929578 h 2.028169 2.028169 v -3.15493 -3.154929 h 1.495662 c 6.163784,0 10.369812,-4.494125 9.518576,-10.170565 -0.357179,-2.381833 -1.452322,-3.915692 -3.359853,-4.705818 L 48.63033,59.59001 49.854722,58.31202 c 1.76697,-1.84432 2.023615,-5.407372 0.547982,-7.607795 -1.236363,-1.843634 -4.439435,-3.605633 -6.554542,-3.605633 h -1.481965 v -3.15493 -3.15493 h -2.028169 -2.028169 v 2.929578 2.929577 H 36.957746 35.605634 V 43.71831 40.788732 h -2.028169 -2.028169 v 2.929578 2.929577 H 27.71831 23.887324 v 2.253521 2.253522 h 1.607094 c 3.387758,0 3.350652,-0.106488 3.350652,9.615857 0,6.152299 -0.15762,8.840354 -0.540845,9.223579 -0.297464,0.297465 -1.206277,0.540845 -2.019582,0.540845 -1.214466,0 -1.520545,0.201368 -1.712676,1.126761 l -0.467878,2.253521 -0.233939,1.126761 h 3.839573 3.839573 v 3.154929 3.15493 h 2.028169 2.028169 z"
     id="path4" /><path
     style="fill:#0000ff;stroke:#006491;stroke-width:0;stroke-opacity:1;stroke-dasharray:none"
     d="M 30.360355,92.628083 C 20.068976,89.930051 11.063209,81.532088 7.6351531,71.43662 6.8824653,69.219988 6.5881042,67.076023 6.4255891,62.626816 6.1720068,55.684446 6.7358874,52.821837 9.4399695,47.323944 13.650912,38.762329 21.105702,32.592458 30.197183,30.144475 34.115964,29.0893 41.99812,29.070449 45.971831,30.106748 c 11.909332,3.105819 21.961361,13.8779 23.857794,25.566791 0.67629,4.16841 0.590413,9.729169 -0.198477,12.851487 -0.853715,3.378902 -4.158165,10.099136 -6.412462,13.040986 -3.731741,4.8699 -12.011705,9.953691 -18.373616,11.281159 -4.350565,0.907786 -10.543679,0.814111 -14.484715,-0.219088 z m 5.245279,-14.205548 v -2.929577 h 1.352112 1.352113 v 2.929577 2.929578 h 2.028169 2.028169 v -3.15493 -3.154929 h 2.271476 c 3.603539,0 7.33958,-2.434822 8.516752,-5.550468 1.292272,-3.420281 0.06648,-7.988068 -2.467984,-9.196669 l -1.45356,-0.693154 1.0737,-1.582186 C 51.946407,55.60336 51.823617,52.141932 50.025426,50.093904 48.364743,48.20249 46.13978,47.098592 43.988224,47.098592 h -1.622027 v -3.15493 -3.15493 h -2.028169 -2.028169 v 2.929578 2.929577 H 36.957746 35.605634 V 43.71831 40.788732 h -2.028169 -2.028169 v 2.929578 2.929577 H 27.71831 23.887324 v 2.194178 2.194177 l 1.840039,0.246801 c 1.012022,0.135741 1.975403,0.381662 2.140845,0.546492 0.463749,0.462029 0.777451,8.501188 0.526158,13.483678 l -0.225352,4.468142 -1.784706,0.498963 c -1.811871,0.506558 -2.34453,1.3207 -2.452058,3.747851 -0.04322,0.97563 0.100344,1.014085 3.78606,1.014085 h 3.830986 v 3.154929 3.15493 h 2.028169 2.028169 z"
     id="path5" /><path
     style="fill:#0000ff;stroke:#006491;stroke-width:0;stroke-opacity:1;stroke-dasharray:none"
     d="M 30.360355,92.628083 C 20.12736,89.945357 11.330924,81.836913 7.7788979,71.812779 6.8356726,69.150914 6.5678135,67.428089 6.4036676,62.967527 6.1478329,56.015382 6.7142438,52.976169 9.235128,47.774648 13.580315,38.808912 20.908453,32.645569 30.197183,30.144475 34.115964,29.0893 41.99812,29.070449 45.971831,30.106748 c 11.909332,3.105819 21.961361,13.8779 23.857794,25.566791 0.67629,4.16841 0.590413,9.729169 -0.198477,12.851487 -0.853715,3.378902 -4.158165,10.099136 -6.412462,13.040986 -3.731741,4.8699 -12.011705,9.953691 -18.373616,11.281159 -4.350565,0.907786 -10.543679,0.814111 -14.484715,-0.219088 z m 5.245279,-14.205548 v -2.929577 h 1.352112 1.352113 v 2.929577 2.929578 h 2.028169 2.028169 v -3.15493 -3.154929 l 2.140845,-0.0099 c 3.694981,-0.01709 7.47571,-2.439482 8.647383,-5.54057 1.282623,-3.394746 -0.08112,-8.248124 -2.612228,-9.296543 l -1.336302,-0.553514 1.087193,-1.602068 C 51.946799,55.602782 51.830477,52.149743 50.025426,50.093902 48.364743,48.202488 46.13978,47.09859 43.988224,47.09859 h -1.622027 v -3.15493 -3.15493 h -2.028169 -2.028169 v 2.929578 2.929577 H 36.957746 35.605634 V 43.71831 40.788732 h -2.028169 -2.028169 v 2.929578 2.929577 H 27.71831 23.887324 v 2.194178 2.194177 l 1.840039,0.246801 c 1.012022,0.135741 1.975403,0.381662 2.140845,0.546492 0.463749,0.462029 0.777451,8.501188 0.526158,13.483678 l -0.225352,4.468142 -1.784706,0.498963 c -1.811871,0.506558 -2.34453,1.3207 -2.452058,3.747851 -0.04322,0.97563 0.100344,1.014085 3.78606,1.014085 h 3.830986 v 3.154929 3.15493 h 2.028169 2.028169 z"
     id="path6" /><path
     style="fill:#0000ff;stroke:#006491;stroke-width:0;stroke-opacity:1;fill-opacity:1;stroke-dasharray:none"
     d="M 30.360355,92.628083 C 20.12736,89.945357 11.330924,81.836913 7.7788979,71.812779 6.8356726,69.150914 6.5678135,67.428089 6.4036676,62.967527 6.1478329,56.015382 6.7142438,52.976169 9.235128,47.774648 13.57849,38.812679 20.880412,32.668868 30.197183,30.137252 c 4.600039,-1.249954 12.74668,-1.065549 17.201871,0.389377 11.454557,3.740698 20.368797,13.631969 22.422517,24.880091 0.69197,3.789875 0.604926,9.966609 -0.184861,13.118306 -0.954538,3.809151 -4.799964,11.276741 -7.246504,14.072292 -4.020426,4.593965 -11.505708,8.960546 -17.558066,10.242596 -4.319023,0.914885 -10.520268,0.824113 -14.471785,-0.211831 z m 5.245279,-14.205548 v -2.929577 h 1.352112 1.352113 v 2.929577 2.929578 h 2.028169 2.028169 v -3.15493 -3.154929 l 2.140845,-0.0099 c 3.694981,-0.01709 7.47571,-2.439482 8.647383,-5.54057 1.222625,-3.235941 0.09852,-7.379494 -2.466335,-9.091136 l -1.368245,-0.913092 1.070106,-1.574765 c 1.457265,-2.144505 1.259798,-6.15474 -0.390095,-7.922313 -1.529168,-1.638237 -4.146782,-2.891888 -6.038239,-2.891888 h -1.59542 v -3.15493 -3.15493 h -2.028169 -2.028169 v 2.929578 2.929577 H 36.957746 35.605634 V 43.71831 40.788732 h -2.028169 -2.028169 v 2.929578 2.929577 H 27.71831 23.887324 v 2.194178 2.194177 l 1.840039,0.246801 c 1.012022,0.135741 1.975403,0.381662 2.140845,0.546492 0.464398,0.462676 0.777197,8.5018 0.526158,13.522578 l -0.225352,4.507042 -1.672236,0.413142 c -1.27619,0.315296 -1.783219,0.731511 -2.140845,1.757397 -1.006152,2.88625 -0.865176,3.01256 3.362377,3.01256 h 3.830986 v 3.154929 3.15493 h 2.028169 2.028169 z"
     id="path7" /><path
     style="fill:#0000ff;fill-opacity:1;stroke:#006491;stroke-width:0;stroke-opacity:1;stroke-dasharray:none"
     d="M 30.360355,92.628083 C 20.12736,89.945357 11.330924,81.836913 7.7788979,71.812779 6.8356726,69.150914 6.5678135,67.428089 6.4036676,62.967527 6.1478329,56.015382 6.7142438,52.976169 9.235128,47.774648 13.601446,38.765311 20.812305,32.699079 30.197183,30.140036 c 4.595742,-1.253154 12.741293,-1.070092 17.201871,0.386593 9.930979,3.243147 17.943616,11.002703 21.241536,20.570619 1.588196,4.607659 2.136068,11.724023 1.260634,16.374463 -0.704915,3.74462 -4.8544,12.108918 -7.503734,15.125607 -4.041632,4.602051 -11.517959,8.961596 -17.56535,10.242596 -4.319023,0.914885 -10.520268,0.824113 -14.471785,-0.211831 z m 5.245279,-14.205548 v -2.929577 h 1.352112 1.352113 v 2.929577 2.929578 h 2.028169 2.028169 v -3.15493 -3.154929 h 2.158022 c 2.734771,0 5.682567,-1.468522 7.477733,-3.72523 2.634005,-3.311212 1.964173,-8.728446 -1.35306,-10.94279 l -1.407445,-0.939509 0.924543,-1.269193 c 0.546997,-0.750907 1.000099,-2.211409 1.109562,-3.576517 0.150589,-1.877964 -0.01364,-2.599592 -0.882537,-3.877926 -1.359274,-1.999777 -4.164179,-3.595553 -6.336677,-3.605083 l -1.690141,-0.0074 v -3.15493 -3.15493 h -2.028169 -2.028169 v 2.929578 2.929577 H 36.957746 35.605634 V 43.71831 40.788732 h -2.028169 -2.028169 v 2.929578 2.929577 H 27.71831 23.887324 v 2.194178 2.194177 l 1.840039,0.246801 c 1.012022,0.135741 1.975403,0.381662 2.140845,0.546492 0.463758,0.462037 0.777448,8.501196 0.526158,13.484197 l -0.225352,4.468662 -1.577465,0.526845 c -1.643913,0.549037 -2.686227,1.985988 -2.697581,3.71893 -0.0064,0.972629 0.149968,1.014085 3.824342,1.014085 h 3.830986 v 3.154929 3.15493 h 2.028169 2.028169 z"
     id="path8" /><path
     style="fill:#000000;fill-opacity:1;stroke:#000000;stroke-width:0.6;stroke-opacity:1;stroke-dasharray:none"
     d="M 30.365149,92.6293 C 20.087409,89.934715 11.345357,81.877643 7.7788979,71.812779 6.8356726,69.150914 6.5678135,67.428089 6.4036676,62.967527 6.1478329,56.015382 6.7142438,52.976169 9.235128,47.774648 13.595898,38.776759 20.8886,32.63772 30.211448,30.116661 c 4.578043,-1.237983 12.737296,-1.043364 17.187606,0.409968 9.930979,3.243147 17.943616,11.002703 21.241536,20.570619 1.588196,4.607659 2.136068,11.724023 1.260634,16.374463 -0.704915,3.74462 -4.8544,12.108918 -7.503734,15.125607 C 58.355858,87.199369 50.879531,91.558914 44.83214,92.839914 40.515406,93.754317 34.31173,93.664 30.365149,92.6293 Z m 5.240485,-14.206765 v -2.929577 h 1.352112 1.352113 v 2.929577 2.929578 h 2.028169 2.028169 v -3.15493 -3.154929 h 1.735562 c 5.271402,0 9.495379,-3.901759 9.522146,-8.795765 0.01226,-2.242827 -1.226857,-4.655287 -3.020809,-5.881239 l -1.361649,-0.930525 0.914566,-1.255497 c 1.245952,-1.710419 1.533235,-5.119471 0.585815,-6.951583 -0.995487,-1.925059 -3.854607,-3.736699 -6.339213,-4.01675 l -2.036418,-0.229534 v -3.096314 -3.096315 h -2.028169 -2.028169 v 2.929578 2.929577 H 36.957746 35.605634 V 43.71831 40.788732 h -2.028169 -2.028169 v 2.929578 2.929577 H 27.71831 23.887324 v 2.194178 2.194177 l 1.840039,0.246801 c 1.012022,0.135741 1.975403,0.381662 2.140845,0.546492 0.463758,0.462037 0.777448,8.501196 0.526158,13.484197 l -0.225352,4.468662 -1.577465,0.526845 c -1.669721,0.557656 -2.785238,2.108493 -2.593979,3.606254 0.103039,0.806914 0.504903,0.915132 3.833416,1.032311 l 3.71831,0.130902 v 3.136704 3.136703 h 2.028169 2.028169 z"
     id="path9" /><path
     style="fill:#000000;fill-opacity:1;stroke:#000000;stroke-width:0.6;stroke-opacity:1;stroke-dasharray:none"
     d="m 35.605634,66.734597 c 0,-4.493285 0.0728,-4.553395 4.718098,-3.89554 4.754741,0.673354 6.714185,3.409851 4.159854,5.809519 -1.047635,0.984202 -4.569097,1.886635 -7.362004,1.886635 h -1.515948 z"
     id="path10" /><path
     style="fill:#000000;fill-opacity:1;stroke:#000000;stroke-width:0.6;stroke-opacity:1;stroke-dasharray:none"
     d="m 35.605634,55.038421 v -3.432787 l 2.591549,0.0017 c 3.578783,0.0023 5.521127,1.184938 5.521127,3.361582 0,2.12734 -1.509316,3.081836 -5.249839,3.320015 l -2.862837,0.182291 z"
     id="path11" /><path
     style="fill:#000000;fill-opacity:1;stroke:#000000;stroke-width:0.6;stroke-opacity:1;stroke-dasharray:none"
     d="m 348.16901,71.980273 c -2.43755,-0.831805 -2.69224,-1.494808 -1.6318,-4.247805 l 0.47197,-1.225279 1.91067,0.674124 c 2.27412,0.802356 7.56023,0.937029 8.88798,0.226437 0.51815,-0.277305 1.07231,-1.023035 1.23147,-1.657177 0.48404,-1.928558 -1.02429,-3.340735 -5.49413,-5.143883 -2.20678,-0.890224 -4.65089,-2.215198 -5.43135,-2.944388 -3.80304,-3.553197 -2.7074,-9.434833 2.23864,-12.017543 2.4779,-1.2939 8.11018,-1.400897 11.18956,-0.212568 l 2.1054,0.812472 -0.7059,2.117105 c -0.38824,1.164408 -0.74629,2.169975 -0.79566,2.234593 -0.0494,0.06462 -0.95816,-0.188902 -2.01954,-0.56338 -4.17814,-1.474133 -8.13345,-0.530912 -8.11942,1.936238 0.0106,1.864141 0.412,2.203519 4.84932,4.100063 5.06455,2.164625 6.53856,3.183679 7.48258,5.173055 2.10068,4.426853 -0.32508,9.769491 -5.02885,11.075857 -2.58955,0.719187 -8.57518,0.537633 -11.14094,-0.337921 z"
     id="path12" /><path
     style="fill:#000000;fill-opacity:1;stroke:#000000;stroke-width:0.6;stroke-opacity:1;stroke-dasharray:none"
     d="m 376.74114,69.375728 c -1.8428,-4.064213 -5.97856,-14.341175 -7.571,-18.813187 -0.72255,-2.029116 -1.45883,-4.053627 -1.63619,-4.498914 -0.29511,-0.74092 -0.0457,-0.798281 2.93926,-0.676056 l 3.26174,0.133556 2.80654,8.112676 c 1.54359,4.461972 3.20751,9.025352 3.6976,10.140845 l 0.89106,2.028169 1.29294,-3.380282 C 383.1342,60.56338 384.77101,56 386.06043,52.28169 l 2.34441,-6.760563 3.03502,-0.134508 3.03502,-0.134507 -0.29803,1.187418 c -0.46025,1.833786 -6.20177,16.586709 -8.36894,21.504132 l -1.93665,4.394366 h -2.89348 -2.89347 z"
     id="path13" /></svg>
